<svg version="1.1" id="Layer_1" xmlns="http://www.w3.org/2000/svg" xmlns:xlink="http://www.w3.org/1999/xlink" x="0px" y="0px"
	 width="100%" viewBox="0 0 279 408" enable-background="new 0 0 279 408" xml:space="preserve">
<path fill="#241E20" opacity="1.000000" stroke="none" 
	d="
M121.000000,1.000000 
	C173.983047,1.000000 226.966080,1.000000 279.974548,1.000000 
	C279.974548,136.939514 279.974548,272.879028 279.974548,408.909271 
	C187.090317,408.909271 94.180527,408.909271 1.135367,408.909271 
	C1.135367,273.000092 1.135367,137.000061 1.135367,1.000000 
	C38.753254,1.000000 76.407967,1.000000 114.556015,1.468113 
	C115.060173,6.922150 115.079720,11.908073 115.080360,16.893999 
	C115.083481,41.325451 115.084381,65.756905 115.079826,90.188354 
	C115.078346,98.135826 115.069717,98.135887 107.366608,98.247879 
	C107.034248,98.252708 106.701759,98.251167 106.369469,98.258507 
	C99.333641,98.413795 97.077820,100.153038 94.658524,107.077408 
	C91.701866,107.038200 90.160522,107.882759 90.703018,111.182983 
	C90.039925,112.295700 89.656631,113.071602 89.207016,114.078392 
	C89.240517,114.926804 89.340324,115.544327 89.525620,116.476501 
	C90.062988,117.529625 90.514862,118.268112 90.904297,119.402367 
	C90.881958,120.863113 90.922066,121.928093 90.716743,123.238525 
	C88.135422,126.164803 89.034546,128.620331 90.937958,131.374680 
	C90.916847,132.497864 90.952675,133.248337 90.824722,134.317139 
	C88.481003,137.507950 88.813339,140.289841 90.903786,143.390091 
	C91.562218,144.572525 92.279694,145.371063 93.123734,146.383881 
	C93.541939,146.999786 93.833572,147.401428 94.053558,148.278381 
	C93.947151,151.416840 93.668983,154.103851 93.927345,156.738235 
	C94.499458,162.571930 92.517006,166.307678 87.333099,169.788910 
	C67.882439,182.850937 59.571136,206.933990 66.048752,229.134277 
	C72.417267,250.960648 91.923416,266.641235 114.272156,267.900085 
	C138.151184,269.245148 158.783203,256.542969 167.971420,234.839890 
	C176.773315,214.049347 172.170273,188.185638 154.005280,174.484650 
	C143.363602,166.458160 140.761017,157.969604 142.546539,146.256577 
	C143.643570,145.123657 144.355316,144.067963 145.226562,142.706055 
	C147.199173,139.821960 147.783508,137.312103 145.038330,134.595123 
	C145.094803,133.138336 145.088837,132.076416 145.311554,130.750427 
	C147.258041,127.859558 147.621170,125.324928 145.109833,122.596985 
	C145.146378,121.138283 145.103531,120.073822 145.234650,118.775711 
	C145.853577,117.696045 146.298553,116.850037 146.811447,115.614532 
	C146.301468,113.773209 145.723557,112.321388 145.189240,110.521011 
	C145.711014,106.594734 142.919205,107.380577 140.955505,106.634079 
	C138.459427,99.321831 136.764969,98.159737 126.964844,98.288750 
	C122.543785,98.346954 120.835274,97.117981 120.865898,92.384666 
	C121.062950,61.924099 120.986588,31.461760 121.000000,1.000000 
z"/>
<path fill="#6A6A6D" opacity="1.000000" stroke="none" 
	d="
M95.014671,107.011703 
	C97.077820,100.153038 99.333641,98.413795 106.369469,98.258507 
	C106.701759,98.251167 107.034248,98.252708 107.366608,98.247879 
	C115.069717,98.135887 115.078346,98.135826 115.079826,90.188354 
	C115.084381,65.756905 115.083481,41.325451 115.080360,16.893999 
	C115.079720,11.908073 115.060173,6.922150 115.024673,1.468113 
	C116.714355,1.000000 118.428719,1.000000 120.571533,1.000000 
	C120.986588,31.461760 121.062950,61.924099 120.865898,92.384666 
	C120.835274,97.117981 122.543785,98.346954 126.964844,98.288750 
	C136.764969,98.159737 138.459427,99.321831 140.487549,106.664192 
	C125.048126,107.044731 110.031395,107.028221 95.014671,107.011703 
z"/>
<path fill="#58595A" opacity="1.000000" stroke="none" 
	d="
M142.161255,146.333801 
	C140.761017,157.969604 143.363602,166.458160 154.005280,174.484650 
	C172.170273,188.185638 176.773315,214.049347 167.971420,234.839890 
	C158.783203,256.542969 138.151184,269.245148 114.272156,267.900085 
	C91.923416,266.641235 72.417267,250.960648 66.048752,229.134277 
	C59.571136,206.933990 67.882439,182.850937 87.333099,169.788910 
	C92.517006,166.307678 94.499458,162.571930 93.927345,156.738235 
	C93.668983,154.103851 93.947151,151.416840 94.159714,148.093170 
	C94.532890,147.042923 94.728241,146.653214 95.390869,146.211029 
	C99.955948,146.240601 104.053757,146.322601 108.183914,146.754364 
	C109.160416,151.412872 106.364647,156.482162 110.863770,160.531738 
	C110.816734,166.638870 110.758842,172.284515 110.322144,177.938065 
	C107.951317,177.918320 105.952499,177.985184 103.968765,177.842407 
	C100.353584,177.582230 98.258759,178.642059 97.501144,182.699127 
	C96.664406,187.179932 94.589806,191.422150 93.625771,195.891525 
	C93.363770,197.106216 94.981918,198.919952 96.059967,200.183258 
	C97.547836,201.926804 99.341881,203.409058 100.912079,205.064148 
	C100.878487,205.081787 100.937599,205.038513 101.309113,205.046539 
	C102.989960,205.320358 104.358398,205.542831 105.711273,205.762787 
	C106.503952,203.203812 107.168854,201.057312 107.886215,198.909546 
	C107.938675,198.908279 108.043205,198.917679 108.275131,198.806198 
	C108.954544,198.442825 109.402031,198.190933 110.037331,197.703659 
	C110.820503,196.932632 111.415848,196.397003 112.212631,195.760132 
	C112.681595,194.752350 112.949120,193.845825 113.209511,192.551331 
	C113.156059,191.648331 113.109749,191.133270 113.065010,190.494263 
	C113.066582,190.370331 113.165047,190.142838 113.290451,189.809479 
	C113.600098,188.794006 113.784340,188.111862 113.895226,187.391693 
	C113.821877,187.353653 113.854431,187.191635 114.198883,187.084579 
	C115.666801,186.604294 116.790276,186.231079 118.275650,185.945206 
	C119.374748,186.094955 120.111961,186.157379 120.855385,186.460754 
	C120.405495,187.901932 119.949379,189.102158 119.601654,190.017181 
	C120.433281,191.436157 121.350815,192.657776 121.904068,194.026627 
	C122.726845,196.062347 122.985161,199.807663 124.022758,200.006042 
	C127.580368,200.686249 131.671234,203.115189 135.283386,199.093124 
	C135.982895,198.921494 136.387894,198.849426 137.067108,198.850494 
	C138.651703,197.967194 140.253311,197.239944 141.219315,196.012482 
	C144.462158,191.891861 141.434860,188.424744 139.724640,184.862320 
	C136.920074,179.020325 130.861115,177.336929 125.452736,180.841980 
	C124.779358,181.278397 123.937187,181.454376 123.134506,181.493927 
	C123.099808,180.888397 123.103821,180.539932 123.237404,179.782318 
	C123.531685,168.367996 123.696404,157.362823 124.333290,146.285995 
	C130.590729,146.254150 136.375992,146.293976 142.161255,146.333801 
M126.668121,255.956253 
	C129.938599,256.980927 133.152939,258.598877 136.490494,258.914612 
	C145.139847,259.732880 150.735840,253.912109 155.964798,248.380173 
	C162.623550,241.335602 165.372681,232.751923 163.099106,223.034088 
	C161.108841,214.527237 154.640213,210.163940 146.046524,211.318451 
	C132.369125,213.155914 119.915009,227.795288 120.492325,241.605240 
	C120.709900,246.809906 121.479858,251.970276 126.668121,255.956253 
z"/>
<path fill="#828287" opacity="1.000000" stroke="none" 
	d="
M90.994888,131.001953 
	C89.034546,128.620331 88.135422,126.164803 91.124771,123.142029 
	C99.575806,122.589149 107.374664,122.171455 115.170662,122.219131 
	C125.125130,122.279999 135.077286,122.716576 145.030441,122.991219 
	C147.621170,125.324928 147.258041,127.859558 144.837860,130.769043 
	C126.421928,131.035156 108.708412,131.018555 90.994888,131.001953 
z"/>
<path fill="#818286" opacity="1.000000" stroke="none" 
	d="
M90.966736,119.006599 
	C90.514862,118.268112 90.062988,117.529625 89.677200,116.330551 
	C89.586647,115.195816 89.429993,114.521660 89.273338,113.847511 
	C89.656631,113.071602 90.039925,112.295700 91.108704,111.184334 
	C102.945206,110.872856 114.096222,110.907715 125.247261,110.916695 
	C131.880051,110.922035 138.512863,110.886642 145.145660,110.869560 
	C145.723557,112.321388 146.301468,113.773209 146.528595,115.731026 
	C145.128113,117.124825 144.078369,118.012627 142.560242,118.949432 
	C125.050148,119.001160 108.008446,119.003876 90.966736,119.006599 
z"/>
<path fill="#828287" opacity="1.000000" stroke="none" 
	d="
M144.975891,134.990021 
	C147.783508,137.312103 147.199173,139.821960 144.806046,142.696136 
	C142.825211,142.952866 141.424423,142.913269 140.125717,142.625854 
	C140.487656,137.964493 139.274734,136.903412 135.450745,137.844391 
	C133.081894,138.427292 130.621857,138.913239 128.196381,138.944229 
	C118.465607,139.068588 108.732338,138.998306 98.946671,138.651718 
	C98.602142,136.936554 98.310959,135.569656 98.486168,134.169418 
	C109.037483,134.099472 119.123711,133.951782 129.206757,134.071884 
	C134.466034,134.134521 139.719696,134.668777 144.975891,134.990021 
z"/>
<path fill="#9C9DA1" opacity="1.000000" stroke="none" 
	d="
M145.189240,110.521011 
	C138.512863,110.886642 131.880051,110.922035 125.247261,110.916695 
	C114.096222,110.907715 102.945206,110.872856 91.388489,110.847519 
	C90.160522,107.882759 91.701866,107.038200 94.658524,107.077408 
	C110.031395,107.028221 125.048126,107.044731 140.532806,107.031128 
	C142.919205,107.380577 145.711014,106.594734 145.189240,110.521011 
z"/>
<path fill="#A2A3A8" opacity="1.000000" stroke="none" 
	d="
M90.904297,119.402367 
	C108.008446,119.003876 125.050148,119.001160 142.898285,118.970123 
	C144.156708,118.964333 144.608688,118.986847 145.060699,119.009361 
	C145.103531,120.073822 145.146378,121.138283 145.109833,122.596985 
	C135.077286,122.716576 125.125130,122.279999 115.170662,122.219131 
	C107.374664,122.171455 99.575806,122.589149 91.370193,122.896576 
	C90.922066,121.928093 90.881958,120.863113 90.904297,119.402367 
z"/>
<path fill="#A4A5AA" opacity="1.000000" stroke="none" 
	d="
M145.038330,134.595123 
	C139.719696,134.668777 134.466034,134.134521 129.206757,134.071884 
	C119.123711,133.951782 109.037483,134.099472 98.102325,134.151855 
	C96.483765,134.190384 95.715454,134.213135 94.551865,134.203491 
	C93.100555,134.113663 92.044525,134.056229 90.988503,133.998795 
	C90.952675,133.248337 90.916847,132.497864 90.937958,131.374664 
	C108.708412,131.018555 126.421928,131.035156 144.609161,131.033142 
	C145.088837,132.076416 145.094803,133.138336 145.038330,134.595123 
z"/>
<path fill="#A4A5AA" opacity="1.000000" stroke="none" 
	d="
M140.023621,142.873672 
	C141.424423,142.913269 142.825211,142.952866 144.646545,143.002365 
	C144.355316,144.067963 143.643570,145.123657 142.546539,146.256577 
	C136.375992,146.293976 130.590729,146.254150 124.113007,146.225861 
	C123.420555,146.237396 122.963623,146.191635 122.606003,146.145264 
	C121.768631,146.126785 121.288864,146.154663 120.373444,146.155731 
	C117.308319,146.244476 114.678871,146.360031 111.665665,146.373810 
	C110.238464,146.316223 109.195015,146.360428 108.151558,146.404633 
	C104.053757,146.322601 99.955948,146.240601 95.073593,146.135910 
	C93.858414,146.132019 93.427795,146.150803 92.997177,146.169586 
	C92.279694,145.371063 91.562218,144.572525 91.355652,143.378387 
	C94.572037,142.932419 97.277489,142.882065 100.364319,142.852493 
	C101.508736,142.857498 102.271774,142.841721 103.355843,142.842560 
	C104.105072,142.847733 104.533287,142.836273 105.431732,142.855316 
	C117.275848,142.881775 128.649734,142.877716 140.023621,142.873672 
z"/>
<path fill="#828287" opacity="1.000000" stroke="none" 
	d="
M99.982948,142.831726 
	C97.277489,142.882065 94.572037,142.932419 91.414703,142.994476 
	C88.813339,140.289841 88.481003,137.507950 90.824722,134.317139 
	C92.044525,134.056229 93.100555,134.113663 94.387985,134.431030 
	C90.975624,141.316025 97.199669,137.909424 99.080284,139.321167 
	C99.434700,140.705460 99.708824,141.768585 99.982948,142.831726 
z"/>
<path fill="#828287" opacity="1.000000" stroke="none" 
	d="
M145.234650,118.775711 
	C144.608688,118.986847 144.156708,118.964333 143.366669,118.921127 
	C144.078369,118.012627 145.128113,117.124825 146.460693,116.120522 
	C146.298553,116.850037 145.853577,117.696045 145.234650,118.775711 
z"/>
<path fill="#828287" opacity="1.000000" stroke="none" 
	d="
M89.207016,114.078392 
	C89.429993,114.521660 89.586647,115.195816 89.591713,116.015915 
	C89.340324,115.544327 89.240517,114.926804 89.207016,114.078392 
z"/>
<path fill="#625E4C" opacity="1.000000" stroke="none" 
	d="
M93.123734,146.383881 
	C93.427795,146.150803 93.858414,146.132019 94.606308,146.188354 
	C94.728241,146.653214 94.532890,147.042923 94.231369,147.617859 
	C93.833572,147.401428 93.541939,146.999786 93.123734,146.383881 
z"/>
<path fill="#6D6E73" opacity="1.000000" stroke="none" 
	d="
M126.383423,255.718536 
	C121.479858,251.970276 120.709900,246.809906 120.492325,241.605240 
	C119.915009,227.795288 132.369125,213.155914 146.046524,211.318451 
	C154.640213,210.163940 161.108841,214.527237 163.099106,223.034088 
	C165.372681,232.751923 162.623550,241.335602 155.964798,248.380173 
	C150.735840,253.912109 145.139847,259.732880 136.490494,258.914612 
	C133.152939,258.598877 129.938599,256.980927 126.383423,255.718536 
M152.977722,233.364410 
	C148.080582,232.752502 144.706161,235.231613 142.269119,239.046982 
	C139.925873,242.715500 141.094009,247.360413 144.423340,248.931564 
	C148.093307,250.663483 153.338959,248.262589 155.985535,243.639618 
	C158.405518,239.412476 157.768143,236.601273 152.977722,233.364410 
z"/>
<path fill="#625E4C" opacity="1.000000" stroke="none" 
	d="
M134.988876,199.192688 
	C131.671234,203.115189 127.580368,200.686249 124.022758,200.006042 
	C122.985161,199.807663 122.726845,196.062347 121.904068,194.026627 
	C121.350815,192.657776 120.433281,191.436157 119.601654,190.017181 
	C119.949379,189.102158 120.405495,187.901932 121.150818,186.382629 
	C121.763672,185.298096 122.087318,184.532608 122.415298,183.604248 
	C122.419632,183.441376 122.428322,183.116425 122.579048,182.905762 
	C122.877586,182.380402 123.025398,182.065720 123.173218,181.751022 
	C123.937187,181.454376 124.779358,181.278397 125.452736,180.841980 
	C130.861115,177.336929 136.920074,179.020325 139.724640,184.862320 
	C141.434860,188.424744 144.462158,191.891861 141.219315,196.012482 
	C140.253311,197.239944 138.651703,197.967194 137.183075,198.495453 
	C139.415344,194.689224 140.365189,191.285995 137.113159,187.554535 
	C136.358673,186.482285 135.695129,185.666382 134.772537,184.610901 
	C133.094498,183.787445 131.675522,183.203552 130.256546,182.619659 
	C130.130753,182.986847 130.004959,183.354019 129.879166,183.721207 
	C131.257828,184.186371 132.636490,184.651520 134.153900,185.381592 
	C134.981781,186.608688 135.670914,187.570862 136.500137,188.852676 
	C136.679840,191.027847 137.376266,194.124954 136.640228,194.514343 
	C134.066772,195.875763 130.998779,196.302429 128.118668,197.084213 
	C128.017960,197.371811 127.917259,197.659409 127.816559,197.947006 
	C130.207336,198.362228 132.598099,198.777466 134.988876,199.192688 
z"/>
<path fill="#625E4C" opacity="1.000000" stroke="none" 
	d="
M107.833755,198.910828 
	C107.168854,201.057312 106.503952,203.203812 105.711273,205.762787 
	C104.358398,205.542831 102.989960,205.320358 101.310760,205.048935 
	C101.000000,205.000000 101.004784,205.003220 101.004784,205.003220 
	C99.341881,203.409058 97.547836,201.926804 96.059967,200.183258 
	C94.981918,198.919952 93.363770,197.106216 93.625771,195.891525 
	C94.589806,191.422150 96.664406,187.179932 97.501144,182.699127 
	C98.258759,178.642059 100.353584,177.582230 103.968765,177.842407 
	C105.952499,177.985184 107.951317,177.918320 110.509323,178.154175 
	C111.324097,178.647522 111.572891,178.932678 111.851295,179.398941 
	C111.880913,179.580032 111.844208,179.950302 111.640213,180.174591 
	C110.620384,181.283279 109.804535,182.167694 108.978928,183.289795 
	C109.018684,183.841812 109.039261,184.158035 109.214600,184.819672 
	C109.952087,186.611465 110.505875,188.059692 111.049072,189.833405 
	C110.865128,190.785583 110.691795,191.412308 110.242111,192.179016 
	C106.965683,194.157501 103.965599,195.995987 100.965523,197.834488 
	C100.965370,198.193268 100.965225,198.552048 100.965080,198.910828 
	C103.254639,198.910828 105.544197,198.910828 107.833755,198.910828 
M98.487038,192.628754 
	C98.487038,192.628754 98.564026,192.369461 98.564026,192.369461 
	C98.564026,192.369461 98.396339,192.571884 98.487038,192.628754 
z"/>
<path fill="#B6A94F" opacity="1.000000" stroke="none" 
	d="
M123.134506,181.493927 
	C123.025398,182.065720 122.877586,182.380402 122.218773,182.636292 
	C121.461945,180.633392 121.030128,178.692017 121.001663,176.744766 
	C120.858894,166.980011 120.821709,157.213715 120.773155,147.132111 
	C120.802299,146.605011 120.805702,146.393768 120.809105,146.182556 
	C121.288864,146.154663 121.768631,146.126785 122.603409,146.599899 
	C123.008232,158.131088 123.058029,169.161285 123.107834,180.191483 
	C123.103821,180.539932 123.099808,180.888397 123.134506,181.493927 
z"/>
<path fill="#66643E" opacity="1.000000" stroke="none" 
	d="
M107.886215,198.909546 
	C105.544197,198.910828 103.254639,198.910828 100.965080,198.910828 
	C100.965225,198.552048 100.965370,198.193268 100.965523,197.834488 
	C103.965599,195.995987 106.965683,194.157501 110.610130,192.124268 
	C111.857475,191.492447 112.460457,191.055328 113.063446,190.618210 
	C113.109749,191.133270 113.156059,191.648331 113.062859,192.836121 
	C112.619293,194.293015 112.315254,195.077209 112.011208,195.861389 
	C111.415848,196.397003 110.820503,196.932632 109.804840,197.810455 
	C108.937416,198.407669 108.490311,198.662674 108.043205,198.917679 
	C108.043205,198.917679 107.938675,198.908279 107.886215,198.909546 
z"/>
<path fill="#625E4C" opacity="1.000000" stroke="none" 
	d="
M108.183914,146.754364 
	C109.195015,146.360428 110.238464,146.316223 111.643929,146.371979 
	C112.005936,146.471924 111.966522,146.453110 111.955078,146.882629 
	C111.889755,147.882385 111.835892,148.452637 111.671165,149.408875 
	C111.324516,153.219986 111.088722,156.645126 110.852928,160.070251 
	C106.364647,156.482162 109.160416,151.412872 108.183914,146.754364 
z"/>
<path fill="#BEBC64" opacity="1.000000" stroke="none" 
	d="
M135.283386,199.093124 
	C132.598099,198.777466 130.207336,198.362228 127.816559,197.947006 
	C127.917259,197.659409 128.017960,197.371811 128.118668,197.084213 
	C130.998779,196.302429 134.066772,195.875763 136.640228,194.514343 
	C137.376266,194.124954 136.679840,191.027847 136.712402,188.673584 
	C136.924408,188.053513 137.064270,187.932190 137.204117,187.810883 
	C140.365189,191.285995 139.415344,194.689224 136.908859,198.422318 
	C136.387894,198.849426 135.982895,198.921494 135.283386,199.093124 
z"/>
<path fill="#BEBC64" opacity="1.000000" stroke="none" 
	d="
M113.065018,190.494263 
	C112.460457,191.055328 111.857475,191.492447 110.886475,191.984283 
	C110.691795,191.412308 110.865128,190.785583 111.275955,189.512756 
	C112.508240,186.372726 111.798332,184.842728 109.030891,184.476135 
	C109.039261,184.158035 109.018684,183.841812 109.323982,183.241547 
	C110.510452,182.661240 111.342102,182.366882 112.438293,182.068390 
	C113.055023,182.044052 113.407204,182.023849 113.931381,182.367401 
	C116.872566,183.076477 119.641762,183.421799 122.410965,183.767136 
	C122.087318,184.532608 121.763672,185.298096 121.144592,186.141678 
	C120.111961,186.157379 119.374748,186.094955 118.053467,185.707901 
	C116.264397,185.986053 115.059418,186.588837 113.854431,187.191635 
	C113.854431,187.191635 113.821877,187.353653 113.670860,187.676270 
	C113.401581,188.713547 113.283318,189.428192 113.165047,190.142838 
	C113.165047,190.142838 113.066582,190.370331 113.065018,190.494263 
z"/>
<path fill="#66643E" opacity="1.000000" stroke="none" 
	d="
M123.237396,179.782318 
	C123.058029,169.161285 123.008232,158.131088 122.961029,146.646271 
	C122.963623,146.191635 123.420555,146.237396 123.640839,146.297531 
	C123.696404,157.362823 123.531685,168.367996 123.237396,179.782318 
z"/>
<path fill="#645E36" opacity="1.000000" stroke="none" 
	d="
M110.863770,160.531738 
	C111.088722,156.645126 111.324516,153.219986 111.735794,149.872086 
	C111.881416,159.705490 111.851547,169.461670 111.821678,179.217850 
	C111.572891,178.932678 111.324097,178.647522 110.888138,178.146240 
	C110.758842,172.284515 110.816734,166.638870 110.863770,160.531738 
z"/>
<path fill="#66643E" opacity="1.000000" stroke="none" 
	d="
M114.198883,187.084579 
	C115.059418,186.588837 116.264397,185.986053 117.691566,185.620560 
	C116.790276,186.231079 115.666801,186.604294 114.198883,187.084579 
z"/>
<path fill="#625E4C" opacity="1.000000" stroke="none" 
	d="
M112.212646,195.760132 
	C112.315254,195.077209 112.619293,194.293015 113.069992,193.224060 
	C112.949120,193.845825 112.681595,194.752350 112.212646,195.760132 
z"/>
<path fill="#625E4C" opacity="1.000000" stroke="none" 
	d="
M100.998352,204.997620 
	C100.937599,205.038513 100.878487,205.081787 100.912079,205.064148 
	C101.004784,205.003220 101.000000,205.000000 100.998352,204.997620 
z"/>
<path fill="#66643E" opacity="1.000000" stroke="none" 
	d="
M113.290451,189.809479 
	C113.283318,189.428192 113.401581,188.713547 113.744209,187.714325 
	C113.784340,188.111862 113.600098,188.794006 113.290451,189.809479 
z"/>
<path fill="#625E4C" opacity="1.000000" stroke="none" 
	d="
M108.275131,198.806198 
	C108.490311,198.662674 108.937416,198.407669 109.617020,198.045868 
	C109.402031,198.190933 108.954544,198.442825 108.275131,198.806198 
z"/>
<path fill="#818286" opacity="1.000000" stroke="none" 
	d="
M100.364319,142.852509 
	C99.708824,141.768585 99.434700,140.705460 99.080284,139.321167 
	C108.732338,138.998306 118.465607,139.068588 128.196381,138.944229 
	C130.621857,138.913239 133.081894,138.427292 135.450745,137.844391 
	C139.274734,136.903412 140.487656,137.964493 140.125717,142.625854 
	C128.649734,142.877716 117.275848,142.881775 105.311104,142.746506 
	C104.158432,142.680099 103.596626,142.753006 103.034821,142.825928 
	C102.271774,142.841721 101.508736,142.857498 100.364319,142.852509 
z"/>
<path fill="#818286" opacity="1.000000" stroke="none" 
	d="
M98.946671,138.651718 
	C97.199669,137.909424 90.975624,141.316025 94.783264,134.463409 
	C95.715454,134.213135 96.483765,134.190384 97.635925,134.185211 
	C98.310959,135.569656 98.602142,136.936554 98.946671,138.651718 
z"/>
<path fill="#58595A" opacity="1.000000" stroke="none" 
	d="
M111.966522,146.453110 
	C111.966522,146.453110 112.005936,146.471924 112.027679,146.473755 
	C114.678871,146.360031 117.308319,146.244476 120.373444,146.155731 
	C120.805702,146.393768 120.802299,146.605011 120.662201,147.482452 
	C120.370430,151.119064 120.123039,154.088089 120.078819,157.060150 
	C119.975296,164.017746 120.049500,170.979233 119.835747,177.932510 
	C119.804214,178.958176 118.595688,179.947647 117.931717,180.953857 
	C117.111786,180.045822 115.790161,179.242188 115.575020,178.208298 
	C115.108574,175.966660 115.179459,173.608444 115.081230,171.295776 
	C114.737961,163.214584 114.416191,155.132462 113.743156,146.914032 
	C112.922211,146.669266 112.444366,146.561188 111.966522,146.453110 
z"/>
<path fill="#828287" opacity="1.000000" stroke="none" 
	d="
M103.355843,142.842560 
	C103.596626,142.753006 104.158432,142.680099 104.840866,142.716003 
	C104.533287,142.836273 104.105072,142.847733 103.355843,142.842560 
z"/>
<path fill="#929398" opacity="1.000000" stroke="none" 
	d="
M153.340790,233.470215 
	C157.768143,236.601273 158.405518,239.412476 155.985535,243.639618 
	C153.338959,248.262589 148.093307,250.663483 144.423340,248.931564 
	C141.094009,247.360413 139.925873,242.715500 142.269119,239.046982 
	C144.706161,235.231613 148.080582,232.752502 153.340790,233.470215 
z"/>
<path fill="#645E36" opacity="1.000000" stroke="none" 
	d="
M114.086250,147.050705 
	C114.416191,155.132462 114.737961,163.214584 115.081230,171.295776 
	C115.179459,173.608444 115.108574,175.966660 115.575020,178.208298 
	C115.790161,179.242188 117.111786,180.045822 117.931717,180.953857 
	C118.595688,179.947647 119.804214,178.958176 119.835747,177.932510 
	C120.049500,170.979233 119.975296,164.017746 120.078819,157.060150 
	C120.123039,154.088089 120.370430,151.119064 120.636459,147.798309 
	C120.821709,157.213715 120.858894,166.980011 121.001663,176.744766 
	C121.030128,178.692017 121.461945,180.633392 122.068047,182.846954 
	C122.428322,183.116425 122.419632,183.441376 122.415298,183.604248 
	C119.641762,183.421799 116.872566,183.076477 113.989349,181.903030 
	C113.945641,169.733521 114.015945,158.392105 114.086250,147.050705 
z"/>
<path fill="#66643E" opacity="1.000000" stroke="none" 
	d="
M134.015152,185.116669 
	C132.636490,184.651520 131.257828,184.186371 129.879166,183.721207 
	C130.004959,183.354019 130.130753,182.986847 130.256546,182.619659 
	C131.675522,183.203552 133.094498,183.787445 134.606628,184.670349 
	C134.476105,185.039597 134.247894,185.088699 134.015152,185.116669 
z"/>
<path fill="#BEBC64" opacity="1.000000" stroke="none" 
	d="
M134.153900,185.381592 
	C134.247894,185.088699 134.476105,185.039597 134.865692,184.909912 
	C135.695129,185.666382 136.358673,186.482285 137.113159,187.554535 
	C137.064270,187.932190 136.924408,188.053513 136.572296,188.353943 
	C135.670914,187.570862 134.981781,186.608688 134.153900,185.381592 
z"/>
<path fill="#B3A66E" opacity="1.000000" stroke="none" 
	d="
M113.743156,146.914032 
	C114.015945,158.392105 113.945641,169.733521 113.817360,181.539276 
	C113.407204,182.023849 113.055023,182.044052 112.368362,181.717316 
	C111.970665,180.897034 111.907433,180.423660 111.844208,179.950302 
	C111.844208,179.950302 111.880913,179.580032 111.851295,179.398941 
	C111.851547,169.461670 111.881416,159.705490 111.846649,149.486099 
	C111.835892,148.452637 111.889755,147.882385 111.955078,146.882629 
	C112.444366,146.561188 112.922211,146.669266 113.743156,146.914032 
z"/>
<path fill="#66643E" opacity="1.000000" stroke="none" 
	d="
M109.214600,184.819672 
	C111.798332,184.842728 112.508240,186.372726 111.286560,189.187286 
	C110.505875,188.059692 109.952087,186.611465 109.214600,184.819672 
z"/>
<path fill="#645E36" opacity="1.000000" stroke="none" 
	d="
M111.640213,180.174591 
	C111.907433,180.423660 111.970665,180.897034 112.103821,181.721466 
	C111.342102,182.366882 110.510452,182.661240 109.333748,183.003845 
	C109.804535,182.167694 110.620384,181.283279 111.640213,180.174591 
z"/>
<path fill="#645E36" opacity="1.000000" stroke="none" 
	d="
M98.441689,192.600311 
	C98.396339,192.571884 98.564026,192.369461 98.564026,192.369461 
	C98.564026,192.369461 98.487038,192.628754 98.441689,192.600311 
z"/>
</svg>