<svg version="1.1" id="Layer_1" xmlns="http://www.w3.org/2000/svg" xmlns:xlink="http://www.w3.org/1999/xlink" x="0px" y="0px"
	 width="100%" viewBox="0 0 258 408" enable-background="new 0 0 258 408" xml:space="preserve">
<path fill="#241E20" opacity="1.000000" stroke="none" 
	d="
M126.000000,1.000000 
	C170.318710,1.000000 214.637405,1.000000 258.978058,1.000000 
	C258.978058,136.940491 258.978058,272.880981 258.978058,408.910736 
	C173.087967,408.910736 87.175804,408.910736 1.131824,408.910736 
	C1.131824,273.000092 1.131824,137.000061 1.131824,1.000000 
	C40.421932,1.000000 79.742310,1.000000 119.508682,1.468208 
	C119.946358,28.504189 119.939728,55.071960 119.928650,81.639732 
	C119.925400,89.432693 119.919624,89.432693 112.076828,89.734657 
	C103.868538,90.050697 102.410553,91.086906 99.291061,98.562668 
	C96.355255,98.393753 95.337166,99.485252 95.777100,102.275406 
	C93.607719,105.141617 93.498055,107.639893 95.863098,110.409195 
	C95.847168,111.868591 95.897079,112.932724 95.739273,114.270905 
	C93.487816,117.166039 93.725990,119.646011 95.912605,122.374771 
	C95.862381,123.510651 95.892128,124.272331 95.776543,125.351814 
	C93.780891,128.525269 93.483627,131.322052 95.887222,134.419769 
	C96.260902,135.734970 96.694763,136.644608 97.183777,137.863495 
	C97.354576,140.805161 97.778946,143.469955 97.507202,146.061783 
	C97.172691,149.252304 96.872116,152.708939 95.416367,155.443390 
	C94.038361,158.031769 91.185089,159.834763 88.674507,162.094421 
	C87.179527,163.402695 85.990692,164.599731 84.526245,165.944199 
	C83.457054,167.020782 82.663467,167.949905 81.613289,169.048950 
	C80.813248,170.067856 80.269806,170.916840 79.569061,171.931366 
	C79.199471,172.315369 78.991226,172.537598 78.511902,172.901749 
	C77.665085,174.447556 77.093391,175.855225 76.501068,177.261337 
	C76.480431,177.259766 76.469620,177.299728 76.128334,177.446045 
	C75.226120,178.902008 74.665192,180.211670 74.121216,181.643127 
	C74.138176,181.764938 73.947159,181.919891 73.648499,182.100540 
	C72.944458,183.565765 72.539070,184.850327 72.110168,186.127289 
	C72.086655,186.119675 72.136261,186.129547 71.816002,186.258392 
	C70.359901,188.879547 68.350578,191.335236 68.244293,193.870712 
	C67.851730,203.236038 68.088203,212.627731 68.088203,221.039261 
	C62.956894,223.361679 57.596340,225.787842 52.233704,228.199554 
	C52.231621,228.185074 52.217091,228.194611 51.777283,228.142334 
	C45.848560,230.056732 40.359653,232.023407 34.805336,234.069046 
	C34.739929,234.148010 34.559540,234.050461 34.253151,234.111786 
	C33.583546,234.373291 33.220333,234.573471 32.625816,234.874908 
	C32.063053,235.021652 31.731594,235.067154 31.063553,234.953217 
	C26.747377,235.646805 22.735245,236.381775 18.818136,237.461487 
	C18.111723,237.656204 17.796114,239.268692 17.299984,240.259476 
	C17.299892,240.292328 17.234234,240.294678 17.128075,240.323608 
	C16.847057,240.545990 16.854469,240.734909 17.101957,241.117493 
	C17.159765,241.315689 17.118933,241.726593 17.230253,242.067535 
	C22.238220,245.700226 25.355200,242.042130 28.756367,239.476227 
	C28.758375,239.466492 28.760109,239.448044 29.168680,239.542786 
	C30.568302,239.652786 31.642502,239.928726 32.537628,239.643219 
	C42.215477,236.556519 51.879322,233.423904 61.514610,230.206863 
	C64.733192,229.132233 67.859138,227.780151 70.211021,226.870621 
	C73.746712,231.594559 76.883873,235.786041 80.102280,240.335129 
	C80.332916,241.899170 80.482315,243.105621 80.310913,244.378021 
	C78.992065,244.947510 77.823029,245.261200 77.021637,245.983047 
	C65.291550,256.548828 53.599091,267.156586 41.945263,277.806458 
	C41.220604,278.468689 40.891155,279.563385 39.635986,281.748169 
	C41.933376,280.765533 43.068687,280.576996 43.788414,279.927795 
	C55.636940,269.239746 67.455139,258.517548 79.193855,247.709320 
	C80.017410,246.951050 80.166306,245.460022 80.989288,244.326294 
	C83.806221,245.649002 86.262794,246.955124 88.912140,248.504608 
	C89.974579,249.284149 90.844261,249.820328 91.904762,250.623413 
	C93.467262,251.993668 95.031212,252.933411 96.151863,254.250366 
	C97.108055,255.374023 97.554794,256.931213 98.119766,258.150391 
	C98.012650,258.004150 98.234390,258.291809 97.892067,258.348328 
	C96.460808,261.026672 95.371872,263.648560 94.262665,266.225525 
	C94.242393,266.180664 94.332581,266.220245 93.993347,266.317200 
	C92.503929,269.350647 91.353760,272.287170 90.190018,275.179718 
	C90.176445,275.135773 90.265427,275.112549 89.964600,275.287720 
	C87.797989,280.083344 85.932205,284.703796 84.064758,289.473633 
	C84.063103,289.623016 83.881470,289.860229 83.596268,290.041626 
	C82.963097,291.239594 82.615135,292.256104 82.255539,293.217560 
	C82.243912,293.162476 82.355080,293.144531 82.036316,293.323303 
	C81.183418,295.050415 80.649292,296.598816 80.105560,298.113129 
	C80.095947,298.079071 80.165710,298.067200 79.843750,298.197571 
	C78.435890,300.106995 76.832268,301.780273 76.439812,303.700989 
	C76.162148,305.059875 77.523773,306.753693 78.153610,308.298004 
	C79.372894,307.437378 81.141235,306.834412 81.692207,305.660217 
	C82.702484,303.507141 82.994591,301.017120 83.562332,298.732910 
	C83.538513,298.798248 83.555283,298.657471 83.920029,298.555695 
	C84.827385,296.799255 85.369987,295.144592 85.896835,293.377808 
	C85.881088,293.265656 86.063690,293.131714 86.355827,292.950317 
	C86.948448,291.734711 87.248932,290.700470 87.567871,289.706665 
	C87.586327,289.747131 87.502151,289.775757 87.809906,289.580139 
	C88.669594,287.843506 89.221519,286.302490 89.790588,284.811859 
	C89.807739,284.862244 89.705643,284.892395 90.004700,284.718994 
	C94.643753,280.067535 96.482864,274.553101 96.927261,268.401611 
	C96.891350,268.327637 97.035950,268.249268 97.334579,268.100830 
	C99.002945,265.806580 100.872635,263.821014 101.623962,261.476990 
	C102.721672,258.052307 104.251961,258.001770 107.455452,258.697571 
	C111.573761,259.592041 115.955574,259.273346 120.450424,259.452271 
	C120.676987,259.427246 121.065178,259.666260 121.072327,260.109558 
	C121.097771,261.439392 121.116066,262.325897 121.097855,263.403076 
	C121.061333,263.593750 120.941917,263.963165 120.757599,264.335571 
	C120.436615,280.818604 120.299957,296.929230 120.158463,313.358704 
	C120.382988,314.490875 120.612358,315.304260 121.020721,316.382172 
	C126.643753,319.089813 124.927811,314.158417 125.948059,311.685669 
	C125.668007,310.212891 125.383591,309.095123 125.102737,307.607361 
	C125.101799,306.497345 125.097305,305.757355 125.268982,304.645752 
	C125.599876,293.510223 125.754601,282.746307 125.914406,271.527466 
	C125.937584,268.908081 125.601646,266.659363 126.090134,264.606873 
	C126.455299,263.072540 127.627251,260.933502 128.886795,260.556458 
	C132.834473,259.374695 136.974335,258.707855 141.085281,258.292847 
	C142.044586,258.196014 143.376801,259.732727 144.198349,260.783051 
	C145.672531,262.667816 146.889648,264.753662 148.192657,266.759094 
	C148.171143,266.762695 148.202347,266.768829 148.185638,267.123230 
	C148.816391,268.648865 149.463852,269.820068 150.076523,270.977173 
	C150.041733,270.963043 150.070389,270.893646 150.048950,271.300140 
	C152.164017,277.433685 154.020660,283.286652 156.523987,288.848633 
	C158.595016,293.450043 161.429581,297.707825 164.017395,302.205200 
	C164.108948,302.292572 164.081863,302.544189 164.062454,302.974670 
	C164.080963,304.061005 163.862518,304.944519 164.204849,305.329987 
	C165.236725,306.491791 166.486740,307.459869 167.651703,308.503479 
	C168.255844,307.032928 169.596664,305.382599 169.291946,304.133789 
	C168.831268,302.245758 167.223938,300.637482 166.007843,298.800049 
	C165.911835,298.689758 165.907211,298.397339 165.932434,297.971680 
	C164.583786,294.720825 163.209930,291.895630 161.870697,289.074402 
	C161.905289,289.078369 161.891235,289.146606 161.911865,288.783478 
	C161.286057,287.248322 160.639648,286.076263 159.905777,284.843689 
	C159.818314,284.783112 159.864792,284.575470 159.891785,284.137360 
	C157.168777,277.846130 154.418793,271.993042 151.740631,266.145508 
	C151.812454,266.151123 151.799210,266.294586 151.740921,266.028931 
	C151.500214,265.450256 151.317810,265.137238 151.047043,264.725586 
	C150.958679,264.626984 150.969955,264.362427 150.916290,264.033081 
	C150.536926,263.131531 150.211212,262.559296 149.921814,262.015259 
	C149.958130,262.043396 149.901505,262.115784 149.928741,261.761627 
	C149.290070,260.366516 148.624130,259.325562 147.682251,258.216064 
	C147.222275,258.102173 147.038223,258.056824 146.725067,257.809357 
	C147.629135,255.991150 148.662308,254.375046 149.700989,252.775421 
	C149.706497,252.791901 149.723068,252.765900 150.019547,252.709290 
	C150.770920,252.279205 151.225815,251.905762 151.723297,251.619827 
	C151.765884,251.707352 151.637939,251.560608 151.947327,251.543182 
	C152.855255,251.021042 153.453812,250.516342 154.204468,249.788574 
	C154.820908,249.302933 155.285248,249.040344 155.926193,248.829254 
	C156.376038,248.543091 156.649261,248.205414 156.927094,247.901367 
	C156.931686,247.934982 156.866867,247.914841 157.231796,247.898315 
	C159.822418,245.667404 162.048126,243.453049 164.437439,241.079468 
	C164.816681,240.704956 165.026581,240.484238 165.525940,240.196869 
	C167.186386,237.727844 168.551620,235.320023 169.932434,232.944595 
	C169.948044,232.976990 169.877686,232.991501 170.100464,232.777954 
	C170.558899,232.004623 170.794571,231.444839 171.071198,230.617554 
	C171.405258,229.905914 171.698364,229.461761 172.284821,228.887390 
	C174.259918,226.374329 176.193405,224.904327 179.067001,226.971741 
	C179.035187,226.984268 179.015747,226.918716 179.171509,227.231689 
	C184.260086,228.995636 189.192902,230.446594 194.087799,231.909790 
	C194.049881,231.922012 194.026184,231.845917 194.224854,232.137482 
	C201.992386,236.361176 209.655914,239.990616 218.580414,239.927673 
	C218.693314,239.905930 218.848465,240.075653 219.076721,240.385895 
	C220.775375,241.027817 222.245773,241.359467 223.828918,241.659714 
	C223.941696,241.628296 224.061768,241.829300 224.028931,242.101624 
	C225.629120,242.599930 227.270691,243.012451 228.889984,242.938354 
	C229.376297,242.916077 229.800552,241.538055 230.253220,240.781128 
	C229.013092,240.202621 227.772980,239.624100 226.429352,239.081528 
	C226.325867,239.117477 226.167068,238.966492 225.996460,238.633026 
	C223.449905,237.698090 221.073975,237.096603 218.757568,236.502182 
	C218.817108,236.509247 218.704590,236.550659 218.512634,236.226654 
	C216.146637,235.329483 213.972610,234.756317 211.830780,234.169693 
	C211.862976,234.156235 211.875610,234.224884 211.704926,233.887909 
	C209.534149,233.069855 207.534088,232.588760 205.198975,232.080704 
	C202.342987,231.172562 199.822037,230.291397 197.047821,229.110046 
	C191.179962,226.603516 185.528717,224.483627 179.976105,222.130981 
	C178.561310,221.531525 177.459412,220.193619 176.485657,218.927338 
	C177.157486,216.943634 177.844864,215.237228 177.902756,213.509735 
	C178.068115,208.576141 177.479004,203.568329 178.118347,198.712372 
	C178.859573,193.082397 176.403839,189.009766 173.220184,184.819839 
	C173.135056,184.686691 173.165085,184.372055 173.378372,184.152786 
	C172.967087,183.017380 172.342514,182.101242 171.762054,181.188080 
	C171.806183,181.191025 171.797958,181.279099 171.785553,180.964203 
	C171.577484,180.051758 171.381821,179.454193 171.069809,178.514801 
	C169.706573,176.367142 168.459717,174.561325 167.055511,172.590744 
	C166.689362,172.205154 166.478439,171.986374 166.144470,171.456070 
	C164.571289,169.808594 163.119034,168.474640 161.466309,167.058273 
	C161.060944,166.757507 160.815933,166.602493 160.451202,166.328064 
	C160.169418,165.965561 160.024979,165.747559 159.888519,165.135559 
	C158.296860,163.443039 156.754959,162.106293 155.102386,160.449738 
	C147.198578,156.857803 149.059708,150.120758 149.158981,143.986511 
	C149.193512,141.852493 149.018921,139.715088 149.268097,137.341217 
	C149.715149,136.076309 149.833954,135.049423 150.161957,133.733429 
	C152.784622,130.866684 152.414536,128.388977 150.161102,125.584930 
	C150.163116,124.127403 150.107239,123.065918 150.229584,121.784286 
	C150.642303,121.058861 150.876801,120.553566 151.334839,119.800278 
	C151.475494,118.500977 151.392593,117.449684 151.260040,116.130615 
	C150.835556,115.251343 150.460739,114.639824 150.129059,113.626892 
	C150.101730,112.155212 150.031265,111.084938 150.182129,109.736382 
	C153.020248,106.838318 151.979889,104.393822 150.105530,101.582779 
	C150.478439,97.927658 148.052841,98.749802 146.219086,98.227890 
	C143.146622,90.488190 142.059128,89.796410 133.336227,89.741119 
	C126.107162,89.695305 126.096832,89.695320 126.088226,82.660645 
	C126.054924,55.440434 126.028793,28.220215 126.000000,1.000000 
M215.948563,196.709076 
	C215.580627,196.777252 215.212677,196.845444 214.864044,196.787888 
	C214.864044,196.787888 214.759109,196.925110 213.863144,196.841995 
	C203.323563,198.120010 192.516815,197.708176 182.294342,200.991867 
	C182.364151,201.539078 182.433960,202.086273 182.503784,202.633469 
	C198.481796,201.047714 214.459824,199.461960 231.116516,197.979019 
	C232.068802,197.502411 233.021103,197.025803 233.973404,196.549210 
	C233.298721,196.074417 232.624023,195.599640 231.107895,195.043442 
	C228.437103,195.375427 225.766312,195.707397 222.337173,195.943237 
	C221.586166,196.059174 220.835159,196.175110 219.325821,196.211182 
	C218.834198,196.326843 218.342575,196.442505 217.372513,196.438904 
	C217.026520,196.472794 216.733185,196.615234 215.948563,196.709076 
M11.655945,195.321320 
	C10.142088,198.921921 12.006011,199.773926 15.189885,199.981354 
	C21.813410,200.412857 28.424505,201.038101 35.039196,201.601486 
	C43.814400,202.348892 52.581059,203.236526 61.369896,203.742477 
	C62.749249,203.821884 64.226402,202.202316 65.658340,201.368332 
	C64.285385,200.285934 62.998394,198.402771 61.526215,198.244751 
	C46.507030,196.632492 31.461405,195.258041 16.410595,193.963333 
	C15.050220,193.846313 13.602118,194.749100 12.071322,195.026245 
	C12.071322,195.026245 12.194631,195.178665 11.655945,195.321320 
M195.004608,273.459076 
	C198.447983,275.857666 200.667755,280.065186 204.971313,281.192108 
	C205.372559,280.690094 205.773788,280.188049 206.175018,279.686035 
	C193.015854,267.761505 179.856689,255.836960 166.697510,243.912415 
	C166.069778,244.581879 165.442032,245.251343 164.814301,245.920822 
	C174.699966,254.946167 184.585632,263.971497 195.004608,273.459076 
z"/>
<path fill="#6E6F73" opacity="1.000000" stroke="none" 
	d="
M99.694260,98.535149 
	C102.410553,91.086906 103.868538,90.050697 112.076828,89.734657 
	C119.919624,89.432693 119.925400,89.432693 119.928650,81.639732 
	C119.939728,55.071960 119.946358,28.504189 119.977341,1.468208 
	C121.714355,1.000000 123.428719,1.000000 125.571533,1.000000 
	C126.028793,28.220215 126.054924,55.440434 126.088226,82.660645 
	C126.096832,89.695320 126.107162,89.695305 133.336227,89.741119 
	C142.059128,89.796410 143.146622,90.488190 145.732742,98.283173 
	C130.116791,98.633125 114.905525,98.584137 99.694260,98.535149 
z"/>
<path fill="#828388" opacity="1.000000" stroke="none" 
	d="
M95.947395,134.014221 
	C93.483627,131.322052 93.780891,128.525269 96.249252,125.388786 
	C114.612610,125.398956 132.357910,125.689964 150.103226,125.980972 
	C152.414536,128.388977 152.784622,130.866684 149.696396,133.730164 
	C131.330215,134.015427 113.638802,134.014832 95.947395,134.014221 
z"/>
<path fill="#838388" opacity="1.000000" stroke="none" 
	d="
M95.928947,110.013931 
	C93.498055,107.639893 93.607719,105.141617 96.246292,102.263435 
	C114.634193,101.979950 132.339920,101.986061 150.045639,101.992172 
	C151.979889,104.393822 153.020248,106.838318 149.814423,109.794701 
	C131.459900,110.092178 113.694427,110.053055 95.928947,110.013931 
z"/>
<path fill="#A1A1A6" opacity="1.000000" stroke="none" 
	d="
M95.863098,110.409195 
	C113.694427,110.053055 131.459900,110.092178 149.593079,110.072983 
	C150.031265,111.084938 150.101730,112.155212 149.743988,113.622429 
	C148.546127,114.006462 147.776459,113.993546 146.537506,113.965408 
	C130.043030,113.959923 114.017860,113.969650 97.651695,113.977463 
	C96.856133,113.982651 96.401558,113.989754 95.946983,113.996864 
	C95.897079,112.932724 95.847168,111.868591 95.863098,110.409195 
z"/>
<path fill="#3A3306" opacity="1.000000" stroke="none" 
	d="
M52.235786,228.214020 
	C57.596340,225.787842 62.956894,223.361679 68.088203,221.039261 
	C68.088203,212.627731 67.851730,203.236038 68.244293,193.870712 
	C68.350578,191.335236 70.359901,188.879547 71.809372,186.602936 
	C72.022919,187.499405 71.922836,188.180145 71.578262,189.151947 
	C66.906830,205.308746 68.366814,220.343201 77.734985,234.550018 
	C78.164703,235.256348 78.523445,235.683624 78.969406,236.404114 
	C79.589050,237.558929 80.121468,238.420532 80.495651,239.455948 
	C80.337410,239.629776 80.021042,239.977524 80.021042,239.977524 
	C76.883873,235.786041 73.746712,231.594559 70.211021,226.870621 
	C67.859138,227.780151 64.733192,229.132233 61.514610,230.206863 
	C51.879322,233.423904 42.215477,236.556519 32.537628,239.643219 
	C31.642502,239.928726 30.568302,239.652786 29.467413,239.356171 
	C42.262226,234.426834 55.615891,230.959885 68.288101,225.700562 
	C68.070999,225.064011 67.853889,224.427460 67.636780,223.790909 
	C62.503117,225.265274 57.369453,226.739655 52.235786,228.214020 
z"/>
<path fill="#413A03" opacity="1.000000" stroke="none" 
	d="
M12.194756,195.178284 
	C13.602118,194.749100 15.050220,193.846313 16.410595,193.963333 
	C31.461405,195.258041 46.507030,196.632492 61.526215,198.244751 
	C62.998394,198.402771 64.285385,200.285934 65.658340,201.368332 
	C64.226402,202.202316 62.749249,203.821884 61.369896,203.742477 
	C52.581059,203.236526 43.814400,202.348892 35.039196,201.601486 
	C28.424505,201.038101 21.813410,200.412857 15.189885,199.981354 
	C12.006011,199.773926 10.142088,198.921921 11.903704,195.631256 
	C14.973354,196.674332 17.795246,197.407455 21.025604,198.274048 
	C34.867218,200.327454 34.867218,200.327454 38.549515,196.931076 
	C35.066822,196.931076 32.304146,196.931076 29.127455,196.748077 
	C23.207211,196.102814 17.700983,195.640549 12.194756,195.178284 
M44.242081,199.056625 
	C44.382191,199.648346 44.460327,200.731918 44.671642,200.758560 
	C48.255539,201.210159 51.851162,201.600967 55.454987,201.847305 
	C57.026291,201.954712 58.621910,201.706512 60.206486,201.619812 
	C60.201981,200.871353 60.197479,200.122910 60.192974,199.374451 
	C55.085659,199.159760 49.978340,198.945084 44.242081,199.056625 
z"/>
<path fill="#DAD339" opacity="1.000000" stroke="none" 
	d="
M194.737946,273.227966 
	C184.585632,263.971497 174.699966,254.946167 164.814301,245.920822 
	C165.442032,245.251343 166.069778,244.581879 166.697510,243.912415 
	C179.856689,255.836960 193.015854,267.761505 206.175018,279.686035 
	C205.773788,280.188049 205.372559,280.690094 204.971313,281.192108 
	C200.667755,280.065186 198.447983,275.857666 194.737946,273.227966 
z"/>
<path fill="#D9D437" opacity="1.000000" stroke="none" 
	d="
M80.628922,244.309723 
	C80.166306,245.460022 80.017410,246.951050 79.193855,247.709320 
	C67.455139,258.517548 55.636940,269.239746 43.788414,279.927795 
	C43.068687,280.576996 41.933376,280.765533 39.635986,281.748169 
	C40.891155,279.563385 41.220604,278.468689 41.945263,277.806458 
	C53.599091,267.156586 65.291550,256.548828 77.021637,245.983047 
	C77.823029,245.261200 78.992065,244.947510 80.341461,244.348053 
	C80.692802,244.252090 80.628922,244.309723 80.628922,244.309723 
z"/>
<path fill="#DDD430" opacity="1.000000" stroke="none" 
	d="
M217.850952,196.558167 
	C218.342575,196.442505 218.834198,196.326843 220.015778,196.389725 
	C222.610046,196.940552 224.514374,197.312836 226.418716,197.685120 
	C226.479340,197.316010 226.539963,196.946899 226.600601,196.577789 
	C225.432236,196.398315 224.263885,196.218842 223.095520,196.039368 
	C225.766312,195.707397 228.437103,195.375427 231.446747,195.299271 
	C231.336334,196.328796 230.887085,197.102509 230.437836,197.876221 
	C214.459824,199.461960 198.481796,201.047714 182.503784,202.633469 
	C182.433960,202.086273 182.364151,201.539078 182.294342,200.991867 
	C192.516815,197.708176 203.323563,198.120010 214.325485,196.885712 
	C214.787827,196.929413 214.844742,196.913635 214.844742,196.913635 
	C215.212677,196.845444 215.580627,196.777252 216.452286,196.749725 
	C217.260941,196.738510 217.559265,196.661102 217.850952,196.558167 
z"/>
<path fill="#A5A59B" opacity="1.000000" stroke="none" 
	d="
M95.887222,134.419769 
	C113.638802,134.014832 131.330215,134.015427 149.487183,134.019287 
	C149.833954,135.049423 149.715149,136.076309 149.059311,137.248535 
	C148.081177,137.493866 147.640076,137.593842 146.937561,137.557892 
	C146.101349,137.373917 145.526550,137.325882 144.491364,137.229980 
	C139.377258,137.238998 134.723541,137.295898 129.751251,137.321655 
	C129.012680,137.365433 128.592682,137.440323 127.860382,137.394531 
	C127.337471,137.345551 127.126869,137.417206 126.534027,137.397797 
	C124.350906,137.356613 122.550026,137.406494 120.563904,137.460831 
	C120.378647,137.465302 120.064476,137.660614 119.671051,137.699844 
	C119.019859,137.794113 118.762077,137.849136 118.470619,137.894928 
	C118.436935,137.885696 118.446991,137.816574 118.107254,137.642151 
	C116.519043,137.401947 115.270569,137.336136 113.557899,137.223724 
	C108.793312,137.271729 104.492912,137.366333 99.854675,137.442505 
	C99.296654,137.472961 99.076454,137.521851 98.569946,137.502167 
	C97.898628,137.473846 97.513626,137.514053 97.128624,137.554260 
	C96.694763,136.644608 96.260902,135.734970 95.887222,134.419769 
z"/>
<path fill="#A1A2A7" opacity="1.000000" stroke="none" 
	d="
M150.161102,125.584930 
	C132.357910,125.689964 114.612610,125.398956 96.394592,125.070976 
	C95.892128,124.272331 95.862381,123.510651 96.165192,122.371933 
	C96.665977,121.987427 96.834206,121.979950 97.470200,122.000603 
	C113.626556,122.029060 129.315155,122.029388 145.424179,122.042847 
	C147.246872,122.038795 148.649109,122.021606 150.051361,122.004425 
	C150.107239,123.065918 150.163116,124.127403 150.161102,125.584930 
z"/>
<path fill="#A3A4A8" opacity="1.000000" stroke="none" 
	d="
M150.105530,101.582779 
	C132.339920,101.986061 114.634193,101.979950 96.459282,101.985809 
	C95.337166,99.485252 96.355255,98.393753 99.291061,98.562668 
	C114.905525,98.584137 130.116791,98.633125 145.814392,98.626831 
	C148.052841,98.749802 150.478439,97.927658 150.105530,101.582779 
z"/>
<path fill="#828388" opacity="1.000000" stroke="none" 
	d="
M150.229584,121.784286 
	C148.649109,122.021606 147.246872,122.038795 145.371216,121.657524 
	C143.303650,120.180588 141.727509,118.198807 140.112473,118.166573 
	C127.223152,117.909332 114.326401,118.040146 101.432060,118.005264 
	C98.681343,117.997826 96.941528,118.931931 97.002434,121.972473 
	C96.834206,121.979950 96.665977,121.987427 96.245163,121.997726 
	C93.725990,119.646011 93.487816,117.166039 95.739273,114.270905 
	C96.401558,113.989754 96.856133,113.982651 97.858490,114.302078 
	C99.599670,115.077797 100.790413,115.909370 101.986855,115.917648 
	C115.586548,116.011810 129.187744,116.038841 142.786514,115.894539 
	C144.199890,115.879539 145.600342,114.647820 147.006790,113.980629 
	C147.776459,113.993546 148.546127,114.006462 149.700867,114.023834 
	C150.460739,114.639824 150.835556,115.251343 151.125519,116.434952 
	C151.064194,118.020790 151.087738,119.034538 151.111282,120.048279 
	C150.876801,120.553566 150.642303,121.058861 150.229584,121.784286 
z"/>
<path fill="#D8D236" opacity="1.000000" stroke="none" 
	d="
M197.301086,229.410217 
	C199.822037,230.291397 202.342987,231.172562 205.472137,232.350922 
	C208.012100,233.173676 209.943863,233.699280 211.875610,234.224884 
	C211.875610,234.224884 211.862976,234.156235 212.102570,234.414124 
	C214.462982,235.298233 216.583786,235.924438 218.704590,236.550659 
	C218.704590,236.550659 218.817108,236.509247 219.038696,236.711731 
	C221.562561,237.598297 223.864807,238.282394 226.167068,238.966492 
	C226.167068,238.966492 226.325867,239.117477 226.662170,239.349945 
	C227.443802,240.150558 227.889114,240.718704 228.334427,241.286850 
	C226.910202,241.467667 225.485992,241.648483 224.061768,241.829300 
	C224.061768,241.829300 223.941696,241.628296 223.533325,241.433380 
	C221.699463,240.850861 220.273956,240.463257 218.848465,240.075653 
	C218.848465,240.075653 218.693314,239.905930 218.279480,239.667847 
	C209.919159,236.901825 201.972672,234.373871 194.026184,231.845917 
	C194.026184,231.845917 194.049881,231.922012 193.827377,231.651611 
	C188.741837,229.893707 183.878784,228.406219 179.015747,226.918716 
	C179.015747,226.918716 179.035187,226.984268 178.974213,226.598846 
	C180.042801,225.729401 181.336914,224.619293 182.274521,224.865707 
	C187.332169,226.194901 192.301376,227.860580 197.301086,229.410217 
z"/>
<path fill="#3A3306" opacity="1.000000" stroke="none" 
	d="
M121.134369,263.212433 
	C121.116066,262.325897 121.097771,261.439392 121.458443,260.005615 
	C127.979118,258.415802 134.120819,257.373230 140.626526,256.272888 
	C143.892181,255.063065 146.793839,253.910995 149.695480,252.758926 
	C148.662308,254.375046 147.629135,255.991150 146.457184,258.049805 
	C146.950348,261.246704 147.582260,264.001099 148.214188,266.755493 
	C146.889648,264.753662 145.672531,262.667816 144.198349,260.783051 
	C143.376801,259.732727 142.044586,258.196014 141.085281,258.292847 
	C136.974335,258.707855 132.834473,259.374695 128.886795,260.556458 
	C127.627251,260.933502 126.455299,263.072540 126.090134,264.606873 
	C125.601646,266.659363 125.937584,268.908081 125.739075,271.898865 
	C125.403374,283.489258 125.248085,294.253296 125.092804,305.017334 
	C125.097305,305.757355 125.101799,306.497345 125.091888,307.961670 
	C125.366219,309.804199 125.654953,310.922455 125.943695,312.040710 
	C124.927811,314.158417 126.643753,319.089813 121.125916,316.290771 
	C121.052124,315.934845 121.259872,315.752319 121.668175,315.855896 
	C122.710320,314.926300 123.887955,313.897583 123.896324,312.859375 
	C124.019104,297.615997 124.035141,282.370941 123.900574,267.127808 
	C123.889359,265.858551 122.611526,264.600464 121.728333,263.286377 
	C121.534492,263.235535 121.134369,263.212433 121.134369,263.212433 
z"/>
<path fill="#DBD538" opacity="1.000000" stroke="none" 
	d="
M52.233704,228.199554 
	C57.369453,226.739655 62.503117,225.265274 67.636780,223.790909 
	C67.853889,224.427460 68.070999,225.064011 68.288101,225.700562 
	C55.615891,230.959885 42.262226,234.426834 29.058842,239.261414 
	C28.760109,239.448044 28.758375,239.466492 28.359823,239.533249 
	C24.347158,240.308868 20.733046,241.017731 17.118933,241.726593 
	C17.118933,241.726593 17.159765,241.315689 17.200466,240.977386 
	C17.241165,240.639084 17.234234,240.294678 17.234234,240.294678 
	C17.234234,240.294678 17.299892,240.292328 17.649616,240.181976 
	C22.466270,238.418625 26.933201,236.765640 31.400131,235.112656 
	C31.731594,235.067154 32.063053,235.021652 32.953796,234.874695 
	C33.861897,234.532303 34.210716,234.291382 34.559540,234.050461 
	C34.559540,234.050461 34.739929,234.148010 35.202965,234.066330 
	C41.183029,232.054642 46.700062,230.124619 52.217091,228.194611 
	C52.217091,228.194611 52.231621,228.185074 52.233704,228.199554 
z"/>
<path fill="#D9D438" opacity="1.000000" stroke="none" 
	d="
M97.035950,268.249268 
	C97.035950,268.249268 96.891350,268.327637 96.657715,268.673553 
	C94.184608,274.310455 91.945129,279.601410 89.705643,284.892395 
	C89.705643,284.892395 89.807739,284.862244 89.535179,285.045959 
	C88.675797,286.745026 88.088966,288.260406 87.502144,289.775757 
	C87.502151,289.775757 87.586327,289.747131 87.345825,289.937012 
	C86.758110,291.128510 86.410896,292.130127 86.063690,293.131714 
	C86.063690,293.131714 85.881088,293.265656 85.620567,293.623108 
	C84.758461,295.539520 84.156868,297.098480 83.555283,298.657471 
	C83.555283,298.657471 83.538513,298.798248 83.314438,298.978027 
	C81.810333,301.796844 80.530304,304.435883 79.250275,307.074890 
	C78.754257,306.881592 78.258247,306.688324 77.762230,306.495026 
	C78.563393,303.685760 79.364548,300.876465 80.165710,298.067200 
	C80.165710,298.067200 80.095947,298.079071 80.375717,297.895935 
	C81.222008,296.190033 81.788544,294.667297 82.355080,293.144531 
	C82.355080,293.144531 82.243912,293.162476 82.506554,293.015015 
	C83.139954,291.865082 83.510712,290.862671 83.881470,289.860229 
	C83.881470,289.860229 84.063103,289.623016 84.339264,289.227295 
	C86.498756,284.258575 88.382095,279.685577 90.265427,275.112549 
	C90.265427,275.112549 90.176445,275.135773 90.456146,274.950134 
	C91.934761,271.916443 93.133675,269.068329 94.332581,266.220245 
	C94.332581,266.220245 94.242393,266.180664 94.508240,265.984375 
	C95.927513,263.289337 97.080948,260.790558 98.234390,258.291809 
	C98.234390,258.291809 98.012650,258.004150 98.478294,258.179199 
	C99.196335,259.397400 99.869110,260.556915 99.618980,261.461060 
	C98.976341,263.784210 97.924339,265.994110 97.035950,268.249268 
z"/>
<path fill="#DBD538" opacity="1.000000" stroke="none" 
	d="
M148.192657,266.759094 
	C147.582260,264.001099 146.950348,261.246704 146.586304,258.251892 
	C147.038223,258.056824 147.222275,258.102173 147.746521,258.511414 
	C148.691650,259.955475 149.296570,261.035645 149.901489,262.115784 
	C149.901505,262.115784 149.958130,262.043396 149.929657,262.359314 
	C150.257446,263.237640 150.613708,263.800049 150.969955,264.362427 
	C150.969955,264.362427 150.958679,264.626984 151.038559,265.018738 
	C151.345367,265.705200 151.572296,265.999878 151.799210,266.294586 
	C151.799210,266.294586 151.812454,266.151123 151.801941,266.518494 
	C154.482544,272.782379 157.173676,278.678925 159.864792,284.575470 
	C159.864792,284.575470 159.818314,284.783112 159.927368,285.190613 
	C160.654709,286.780975 161.272964,287.963776 161.891235,289.146606 
	C161.891235,289.146606 161.905289,289.078369 161.921295,289.440125 
	C163.260620,292.667023 164.583923,295.532196 165.907227,298.397339 
	C165.907211,298.397339 165.911835,298.689758 166.052277,299.167175 
	C166.820923,301.812653 167.449127,303.980713 168.077332,306.148804 
	C167.582474,306.294189 167.087631,306.439545 166.592789,306.584930 
	C165.755814,305.238007 164.918839,303.891113 164.081863,302.544189 
	C164.081863,302.544189 164.108948,302.292572 163.992676,301.831604 
	C159.274399,291.211670 154.672394,281.052643 150.070389,270.893646 
	C150.070389,270.893646 150.041733,270.963043 150.057831,270.635803 
	C149.450058,269.128662 148.826202,267.948730 148.202347,266.768829 
	C148.202347,266.768829 148.171143,266.762695 148.192657,266.759094 
z"/>
<path fill="#3A3306" opacity="1.000000" stroke="none" 
	d="
M97.334579,268.100830 
	C97.924339,265.994110 98.976341,263.784210 99.618980,261.461060 
	C99.869110,260.556915 99.196335,259.397400 98.585403,258.325439 
	C97.554794,256.931213 97.108055,255.374023 96.151863,254.250366 
	C95.031212,252.933411 93.467262,251.993668 91.984711,250.524521 
	C91.873825,250.158722 92.035507,249.962387 92.346329,250.038971 
	C93.595734,250.604980 94.534309,251.094391 95.632187,251.773102 
	C96.050438,252.188766 96.351486,252.313782 96.947243,252.579681 
	C104.874527,255.040375 112.549202,257.258850 120.223869,259.477295 
	C115.955574,259.273346 111.573761,259.592041 107.455452,258.697571 
	C104.251961,258.001770 102.721672,258.052307 101.623962,261.476990 
	C100.872635,263.821014 99.002945,265.806580 97.334579,268.100830 
z"/>
<path fill="#E8E127" opacity="1.000000" stroke="none" 
	d="
M120.450424,259.452271 
	C112.549202,257.258850 104.874527,255.040375 97.068230,252.433167 
	C96.936607,252.044388 97.176422,251.749573 97.553329,251.819397 
	C102.298080,253.356583 106.662994,254.832733 111.034355,256.289520 
	C120.696640,259.509583 130.267883,257.619415 139.944382,255.901764 
	C140.050476,256.044678 140.262512,256.330627 140.262512,256.330627 
	C134.120819,257.373230 127.979118,258.415802 121.451294,259.562317 
	C121.065178,259.666260 120.676987,259.427246 120.450424,259.452271 
z"/>
<path fill="#E8E127" opacity="1.000000" stroke="none" 
	d="
M149.700989,252.775421 
	C146.793839,253.910995 143.892181,255.063065 140.626526,256.272888 
	C140.262512,256.330627 140.050476,256.044678 140.163086,255.704147 
	C141.418900,254.062149 144.425720,253.499283 142.389435,250.646179 
	C146.020813,249.241837 149.303833,247.887268 152.677521,246.819092 
	C154.404358,246.272324 156.293472,246.238113 157.991913,246.239624 
	C157.538681,246.976288 157.202774,247.445572 156.866882,247.914856 
	C156.866867,247.914841 156.931686,247.934982 156.668716,247.957870 
	C156.187027,248.246429 155.968323,248.512100 155.749603,248.777771 
	C155.285248,249.040344 154.820908,249.302933 153.908813,249.827637 
	C152.853348,250.580048 152.245636,251.070328 151.637939,251.560608 
	C151.637939,251.560608 151.765884,251.707352 151.428986,251.689270 
	C150.635757,252.036102 150.179413,252.401001 149.723083,252.765900 
	C149.723068,252.765900 149.706497,252.791901 149.700989,252.775421 
z"/>
<path fill="#3A3306" opacity="1.000000" stroke="none" 
	d="
M150.048950,271.300140 
	C154.672394,281.052643 159.274399,291.211670 163.901123,301.744263 
	C161.429581,297.707825 158.595016,293.450043 156.523987,288.848633 
	C154.020660,283.286652 152.164017,277.433685 150.048950,271.300140 
z"/>
<path fill="#3A3306" opacity="1.000000" stroke="none" 
	d="
M197.047821,229.110031 
	C192.301376,227.860580 187.332169,226.194901 182.274521,224.865707 
	C181.336914,224.619293 180.042801,225.729401 179.006012,226.586319 
	C176.193405,224.904327 174.259918,226.374329 172.289612,228.565933 
	C172.045151,227.951004 172.089249,227.527313 172.103241,227.100128 
	C172.073120,227.096603 172.087814,227.154739 172.341095,226.962601 
	C172.755478,226.170898 172.916565,225.571335 173.041473,224.989548 
	C173.005280,225.007324 173.040909,225.079697 173.292114,224.838531 
	C174.242477,222.636887 174.941650,220.676407 175.784119,218.835632 
	C175.927399,218.955322 176.213745,219.195007 176.213745,219.195007 
	C177.459412,220.193619 178.561310,221.531525 179.976105,222.130981 
	C185.528717,224.483627 191.179962,226.603516 197.047821,229.110031 
z"/>
<path fill="#3A3306" opacity="1.000000" stroke="none" 
	d="
M97.183777,137.863495 
	C97.513626,137.514053 97.898628,137.473846 98.575172,137.923233 
	C98.921692,144.228058 98.976669,150.043259 98.876282,156.168365 
	C96.749947,157.940338 94.778992,159.402405 92.870743,160.890442 
	C92.933441,160.916428 92.984596,160.790695 92.687851,160.829407 
	C92.102951,161.131836 91.814789,161.395554 91.561005,161.647247 
	C91.595375,161.635223 91.562218,161.570389 91.298370,161.653687 
	C90.554085,162.007278 90.073654,162.277557 89.440125,162.406601 
	C89.287041,162.265381 88.980652,161.983170 88.980652,161.983170 
	C91.185089,159.834763 94.038361,158.031769 95.416367,155.443390 
	C96.872116,152.708939 97.172691,149.252304 97.507202,146.061783 
	C97.778946,143.469955 97.354576,140.805161 97.183777,137.863495 
z"/>
<path fill="#3A3306" opacity="1.000000" stroke="none" 
	d="
M173.305313,184.952988 
	C176.403839,189.009766 178.859573,193.082397 178.118347,198.712372 
	C177.479004,203.568329 178.068115,208.576141 177.902756,213.509735 
	C177.844864,215.237228 177.157486,216.943634 176.485657,218.927338 
	C176.213745,219.195007 175.927399,218.955322 175.838745,218.421204 
	C175.986374,215.956940 176.222672,214.026810 176.518600,211.998322 
	C176.578247,211.899979 176.426178,211.727356 176.610092,211.311768 
	C176.687164,206.833496 176.580307,202.770798 176.493423,198.709534 
	C176.513397,198.710983 176.518906,198.671341 176.535004,198.266373 
	C176.071167,196.042847 175.591202,194.224289 175.155716,192.354416 
	C175.200195,192.303101 175.098755,192.212814 175.137268,191.844116 
	C174.824814,190.595520 174.473862,189.715622 174.108719,188.863861 
	C174.094528,188.892014 174.158005,188.894348 174.150589,188.491577 
	C173.863876,187.043549 173.584595,185.998260 173.305313,184.952988 
z"/>
<path fill="#3A3306" opacity="1.000000" stroke="none" 
	d="
M147.198990,137.693832 
	C147.640076,137.593842 148.081177,137.493866 148.731049,137.486557 
	C149.018921,139.715088 149.193512,141.852493 149.158981,143.986511 
	C149.059708,150.120758 147.198578,156.857803 154.989075,160.576599 
	C154.986435,161.023254 154.759659,161.276810 154.474792,161.189636 
	C153.806625,161.005768 153.423309,160.909058 153.043732,160.875885 
	C153.047470,160.939423 153.174484,160.931274 153.069244,160.671326 
	C152.628906,160.279678 152.293808,160.148010 151.967377,160.021286 
	C151.976013,160.026245 151.993073,160.041168 151.779907,159.759201 
	C148.004501,158.046982 146.808395,155.502731 147.108353,151.649536 
	C147.468475,147.023315 147.196991,142.347931 147.198990,137.693832 
z"/>
<path fill="#AFA818" opacity="1.000000" stroke="none" 
	d="
M121.097855,263.403076 
	C121.134369,263.212433 121.534492,263.235535 121.766136,263.727905 
	C121.987022,274.616272 122.041725,285.012970 121.940964,295.408112 
	C121.880432,301.652283 121.577385,307.894043 121.243172,313.859314 
	C121.034447,313.386078 120.965874,313.190460 120.947304,312.528839 
	C120.978844,296.029602 120.960381,279.996399 120.941917,263.963165 
	C120.941917,263.963165 121.061333,263.593750 121.097855,263.403076 
z"/>
<path fill="#362C01" opacity="1.000000" stroke="none" 
	d="
M120.757599,264.335571 
	C120.960381,279.996399 120.978844,296.029602 120.763809,312.540100 
	C120.530304,313.017395 120.163307,313.039886 120.163307,313.039886 
	C120.299957,296.929230 120.436615,280.818604 120.757599,264.335571 
z"/>
<path fill="#3A3306" opacity="1.000000" stroke="none" 
	d="
M194.224854,232.137482 
	C201.972672,234.373871 209.919159,236.901825 218.166580,239.689606 
	C209.655914,239.990616 201.992386,236.361176 194.224854,232.137482 
z"/>
<path fill="#3A3306" opacity="1.000000" stroke="none" 
	d="
M79.843750,298.197571 
	C79.364548,300.876465 78.563393,303.685760 77.762230,306.495026 
	C78.258247,306.688324 78.754257,306.881592 79.250275,307.074890 
	C80.530304,304.435883 81.810333,301.796844 83.338249,298.912720 
	C82.994591,301.017120 82.702484,303.507141 81.692207,305.660217 
	C81.141235,306.834412 79.372894,307.437378 78.153610,308.298004 
	C77.523773,306.753693 76.162148,305.059875 76.439812,303.700989 
	C76.832268,301.780273 78.435890,300.106995 79.843750,298.197571 
z"/>
<path fill="#3A3306" opacity="1.000000" stroke="none" 
	d="
M159.891785,284.137360 
	C157.173676,278.678925 154.482544,272.782379 151.730118,266.512878 
	C154.418793,271.993042 157.168777,277.846130 159.891785,284.137360 
z"/>
<path fill="#292209" opacity="1.000000" stroke="none" 
	d="
M125.268982,304.645752 
	C125.248085,294.253296 125.403374,283.489258 125.733986,272.353790 
	C125.754601,282.746307 125.599876,293.510223 125.268982,304.645752 
z"/>
<path fill="#3A3306" opacity="1.000000" stroke="none" 
	d="
M31.063553,234.953217 
	C26.933201,236.765640 22.466270,238.418625 17.649710,240.149109 
	C17.796114,239.268692 18.111723,237.656204 18.818136,237.461487 
	C22.735245,236.381775 26.747377,235.646805 31.063553,234.953217 
z"/>
<path fill="#E8E127" opacity="1.000000" stroke="none" 
	d="
M71.822754,188.860886 
	C71.922836,188.180145 72.022919,187.499405 72.129631,186.474106 
	C72.136261,186.129547 72.086655,186.119675 72.358841,185.906860 
	C73.069740,184.435989 73.508453,183.177933 73.947159,181.919891 
	C73.947159,181.919891 74.138176,181.764938 74.395409,181.415527 
	C75.258301,179.810638 75.863960,178.555191 76.469620,177.299728 
	C76.469620,177.299728 76.480431,177.259766 76.701859,177.113510 
	C77.278397,176.632172 77.633499,176.297089 78.074265,176.246964 
	C78.081223,177.890732 78.429848,179.481644 77.842018,180.563934 
	C76.212761,183.563660 74.193352,186.351471 72.201775,189.132523 
	C72.075409,189.042007 71.822754,188.860886 71.822754,188.860886 
z"/>
<path fill="#3A3306" opacity="1.000000" stroke="none" 
	d="
M164.062454,302.974670 
	C164.918839,303.891113 165.755814,305.238007 166.592789,306.584930 
	C167.087631,306.439545 167.582474,306.294189 168.077332,306.148804 
	C167.449127,303.980713 166.820923,301.812653 166.148300,299.277466 
	C167.223938,300.637482 168.831268,302.245758 169.291946,304.133789 
	C169.596664,305.382599 168.255844,307.032928 167.651703,308.503479 
	C166.486740,307.459869 165.236725,306.491791 164.204849,305.329987 
	C163.862518,304.944519 164.080963,304.061005 164.062454,302.974670 
z"/>
<path fill="#3A3306" opacity="1.000000" stroke="none" 
	d="
M90.004707,284.718994 
	C91.945129,279.601410 94.184608,274.310455 96.693634,268.747498 
	C96.482864,274.553101 94.643753,280.067535 90.004707,284.718994 
z"/>
<path fill="#3A3306" opacity="1.000000" stroke="none" 
	d="
M51.777283,228.142334 
	C46.700062,230.124619 41.183029,232.054642 35.268372,233.987366 
	C40.359653,232.023407 45.848560,230.056732 51.777283,228.142334 
z"/>
<path fill="#3A3306" opacity="1.000000" stroke="none" 
	d="
M179.171509,227.231689 
	C183.878784,228.406219 188.741837,229.893707 193.865295,231.639374 
	C189.192902,230.446594 184.260086,228.995636 179.171509,227.231689 
z"/>
<path fill="#3A3306" opacity="1.000000" stroke="none" 
	d="
M89.964600,275.287720 
	C88.382095,279.685577 86.498756,284.258575 84.340912,289.077942 
	C85.932205,284.703796 87.797989,280.083344 89.964600,275.287720 
z"/>
<path fill="#3A3306" opacity="1.000000" stroke="none" 
	d="
M88.719376,248.261261 
	C86.262794,246.955124 83.806221,245.649002 80.989281,244.326294 
	C80.628922,244.309723 80.692802,244.252090 80.662254,244.282074 
	C80.482315,243.105621 80.332916,241.899170 80.102280,240.335129 
	C80.021042,239.977524 80.337410,239.629776 80.756073,239.663544 
	C83.610031,241.999405 86.045334,244.301498 88.486923,246.594452 
	C88.493202,246.585312 88.510201,246.587799 88.606155,246.807205 
	C88.938988,247.254150 89.094124,247.527969 89.055511,247.951431 
	C88.943527,248.054764 88.719383,248.261246 88.719376,248.261261 
z"/>
<path fill="#3A3306" opacity="1.000000" stroke="none" 
	d="
M17.230253,242.067535 
	C20.733046,241.017731 24.347158,240.308868 28.357815,239.542999 
	C25.355200,242.042130 22.238220,245.700226 17.230253,242.067535 
z"/>
<path fill="#3A3306" opacity="1.000000" stroke="none" 
	d="
M224.028931,242.101624 
	C225.485992,241.648483 226.910202,241.467667 228.334427,241.286850 
	C227.889114,240.718704 227.443802,240.150558 226.765656,239.313995 
	C227.772980,239.624100 229.013092,240.202621 230.253220,240.781128 
	C229.800552,241.538055 229.376297,242.916077 228.889984,242.938354 
	C227.270691,243.012451 225.629120,242.599930 224.028931,242.101624 
z"/>
<path fill="#3A3306" opacity="1.000000" stroke="none" 
	d="
M157.231812,247.898315 
	C157.202774,247.445572 157.538681,246.976288 158.282043,246.110992 
	C160.433075,244.118317 162.176651,242.521683 164.008636,241.003448 
	C164.097031,241.081848 164.273834,241.238693 164.273834,241.238693 
	C162.048126,243.453049 159.822418,245.667404 157.231812,247.898315 
z"/>
<path fill="#3A3306" opacity="1.000000" stroke="none" 
	d="
M169.916840,232.912201 
	C168.551620,235.320023 167.186386,237.727844 165.428940,240.096436 
	C165.036728,240.057175 164.842392,239.856613 164.940308,239.523483 
	C165.250778,238.779968 165.463348,238.369568 165.924484,237.814301 
	C166.460495,236.773453 166.747955,235.877472 167.009918,234.974304 
	C166.984421,234.967148 166.990219,235.018738 167.247711,234.993454 
	C167.769333,234.757416 168.033478,234.546661 168.539520,234.192734 
	C168.879074,233.693649 168.976730,233.337753 169.038605,232.999023 
	C169.002808,233.016220 169.034409,233.089066 169.253998,233.039764 
	C169.473587,232.990448 169.916855,232.912201 169.916840,232.912201 
z"/>
<path fill="#3A3306" opacity="1.000000" stroke="none" 
	d="
M93.993347,266.317200 
	C93.133675,269.068329 91.934761,271.916443 90.469719,274.994080 
	C91.353760,272.287170 92.503929,269.350647 93.993347,266.317200 
z"/>
<path fill="#3A3306" opacity="1.000000" stroke="none" 
	d="
M165.932434,297.971680 
	C164.583923,295.532196 163.260620,292.667023 161.886703,289.436157 
	C163.209930,291.895630 164.583786,294.720825 165.932434,297.971680 
z"/>
<path fill="#3A3306" opacity="1.000000" stroke="none" 
	d="
M97.892059,258.348328 
	C97.080948,260.790558 95.927513,263.289337 94.528503,266.029236 
	C95.371872,263.648560 96.460808,261.026672 97.892059,258.348328 
z"/>
<path fill="#DAD136" opacity="1.000000" stroke="none" 
	d="
M173.220184,184.819839 
	C173.584595,185.998260 173.863876,187.043549 173.849487,188.307312 
	C172.685776,186.025360 171.815765,183.524933 171.153351,181.106415 
	C171.360947,181.188309 171.797958,181.279099 171.797958,181.279099 
	C171.797958,181.279099 171.806183,181.191025 171.807220,181.481445 
	C172.260544,182.638596 172.712814,183.505325 173.165085,184.372055 
	C173.165085,184.372055 173.135056,184.686691 173.220184,184.819839 
z"/>
<path fill="#3A3306" opacity="1.000000" stroke="none" 
	d="
M225.996460,238.633026 
	C223.864807,238.282394 221.562561,237.598297 218.979172,236.704666 
	C221.073975,237.096603 223.449905,237.698090 225.996460,238.633026 
z"/>
<path fill="#3A3306" opacity="1.000000" stroke="none" 
	d="
M167.212845,172.755524 
	C168.459717,174.561325 169.706573,176.367142 170.956512,178.606476 
	C170.959595,179.040009 170.735168,179.222076 170.517807,179.062683 
	C169.922012,178.530991 169.543594,178.158676 169.127380,177.854156 
	C169.089584,177.921967 169.225632,177.996750 169.229950,177.702667 
	C168.977432,177.123123 168.720581,176.837646 168.500488,176.545624 
	C168.537247,176.539062 168.525543,176.465317 168.415741,176.169739 
	C167.812820,174.970322 167.319717,174.066467 166.923279,173.060959 
	C167.019958,172.959290 167.212845,172.755524 167.212845,172.755524 
z"/>
<path fill="#3A3306" opacity="1.000000" stroke="none" 
	d="
M161.666779,167.140701 
	C163.119034,168.474640 164.571289,169.808594 166.062164,171.527496 
	C166.100769,171.912460 165.936188,172.055374 165.674286,171.884918 
	C164.627808,171.098831 163.843201,170.483200 163.084320,169.899048 
	C163.110016,169.930511 163.176224,169.883377 163.018539,169.615570 
	C162.462830,168.612076 162.064804,167.876389 161.666779,167.140701 
z"/>
<path fill="#D6D141" opacity="1.000000" stroke="none" 
	d="
M230.777176,197.927612 
	C230.887085,197.102509 231.336334,196.328796 231.867462,195.339981 
	C232.624023,195.599640 233.298721,196.074417 233.973404,196.549194 
	C233.021103,197.025803 232.068802,197.502411 230.777176,197.927612 
z"/>
<path fill="#D6D141" opacity="1.000000" stroke="none" 
	d="
M222.716339,195.991302 
	C224.263885,196.218842 225.432236,196.398315 226.600601,196.577789 
	C226.539963,196.946899 226.479340,197.316010 226.418716,197.685120 
	C224.514374,197.312836 222.610046,196.940552 220.394928,196.429657 
	C220.835159,196.175110 221.586166,196.059174 222.716339,195.991302 
z"/>
<path fill="#3A3306" opacity="1.000000" stroke="none" 
	d="
M155.099747,160.896393 
	C156.754959,162.106293 158.296860,163.443039 159.603424,165.022430 
	C158.998199,165.112106 158.628326,164.959122 158.256134,164.824432 
	C158.253815,164.842728 158.247498,164.839142 158.132919,164.540024 
	C156.932114,163.252884 155.845886,162.264847 154.759659,161.276810 
	C154.759659,161.276810 154.986435,161.023254 155.099747,160.896393 
z"/>
<path fill="#3A3306" opacity="1.000000" stroke="none" 
	d="
M218.512634,236.226654 
	C216.583786,235.924438 214.462982,235.298233 212.070374,234.427582 
	C213.972610,234.756317 216.146637,235.329483 218.512634,236.226654 
z"/>
<path fill="#3A3306" opacity="1.000000" stroke="none" 
	d="
M211.704926,233.887909 
	C209.943863,233.699280 208.012100,233.173676 205.807190,232.377869 
	C207.534088,232.588760 209.534149,233.069855 211.704926,233.887909 
z"/>
<path fill="#DAD136" opacity="1.000000" stroke="none" 
	d="
M169.932449,232.944595 
	C169.916855,232.912201 169.473587,232.990448 169.247940,232.665237 
	C170.059311,230.594559 171.096329,228.849106 172.133347,227.103638 
	C172.089249,227.527313 172.045151,227.951004 171.996262,228.696136 
	C171.698364,229.461761 171.405258,229.905914 170.825439,230.810974 
	C170.318375,231.845093 170.098022,232.418289 169.877686,232.991501 
	C169.877686,232.991501 169.948044,232.976990 169.932449,232.944595 
z"/>
<path fill="#3A3306" opacity="1.000000" stroke="none" 
	d="
M77.988602,175.962006 
	C77.633499,176.297089 77.278397,176.632172 76.722496,177.115082 
	C77.093391,175.855225 77.665085,174.447556 78.617462,173.006821 
	C78.998154,172.973770 79.209961,173.183243 79.144501,173.470718 
	C78.983948,174.136734 78.888847,174.515259 78.844368,174.910187 
	C78.894997,174.926559 78.926826,174.825012 78.659851,174.916840 
	C78.248199,175.343231 78.103531,175.677795 77.985474,176.011139 
	C78.012093,176.009903 77.988602,175.962006 77.988602,175.962006 
z"/>
<path fill="#3A3306" opacity="1.000000" stroke="none" 
	d="
M84.801849,165.796753 
	C85.990692,164.599731 87.179527,163.402695 88.674507,162.094421 
	C88.980652,161.983170 89.287041,162.265381 89.267952,162.643814 
	C88.742661,163.610062 88.236458,164.197891 87.766098,164.790802 
	C87.801949,164.795883 87.809738,164.723892 87.517769,164.804077 
	C86.575928,165.349457 85.926056,165.814651 85.157547,166.159119 
	C85.038910,166.038406 84.801849,165.796753 84.801849,165.796753 
z"/>
<path fill="#3A3306" opacity="1.000000" stroke="none" 
	d="
M83.920029,298.555695 
	C84.156868,297.098480 84.758461,295.539520 85.636314,293.735229 
	C85.369987,295.144592 84.827385,296.799255 83.920029,298.555695 
z"/>
<path fill="#3A3306" opacity="1.000000" stroke="none" 
	d="
M173.378372,184.152786 
	C172.712814,183.505325 172.260544,182.638596 171.763092,181.478485 
	C172.342514,182.101242 172.967087,183.017380 173.378372,184.152786 
z"/>
<path fill="#3A3306" opacity="1.000000" stroke="none" 
	d="
M82.036316,293.323303 
	C81.788544,294.667297 81.222008,296.190033 80.385323,297.929993 
	C80.649292,296.598816 81.183418,295.050415 82.036316,293.323303 
z"/>
<path fill="#3A3306" opacity="1.000000" stroke="none" 
	d="
M219.076721,240.385895 
	C220.273956,240.463257 221.699463,240.850861 223.420563,241.464798 
	C222.245773,241.359467 220.775375,241.027817 219.076721,240.385895 
z"/>
<path fill="#DAD136" opacity="1.000000" stroke="none" 
	d="
M161.466309,167.058273 
	C162.064804,167.876389 162.462830,168.612076 162.692474,169.598465 
	C161.661713,168.925064 160.799332,168.000961 160.086517,166.936554 
	C160.236099,166.796219 160.530792,166.510818 160.530792,166.510818 
	C160.815933,166.602493 161.060944,166.757507 161.466309,167.058273 
z"/>
<path fill="#3A3306" opacity="1.000000" stroke="none" 
	d="
M81.869873,168.879028 
	C82.663467,167.949905 83.457054,167.020782 84.526245,165.944199 
	C84.801849,165.796753 85.038910,166.038406 85.031013,166.430481 
	C84.586563,167.480957 84.150009,168.139389 83.750320,168.796082 
	C83.787186,168.794357 83.781197,168.720795 83.528152,168.785950 
	C82.967018,169.009491 82.658928,169.167877 82.230667,169.214355 
	C82.110504,169.102463 81.869873,168.879028 81.869873,168.879028 
z"/>
<path fill="#3A3306" opacity="1.000000" stroke="none" 
	d="
M73.648499,182.100540 
	C73.508453,183.177933 73.069740,184.435989 72.382355,185.914459 
	C72.539070,184.850327 72.944458,183.565765 73.648499,182.100540 
z"/>
<path fill="#3A3306" opacity="1.000000" stroke="none" 
	d="
M87.809906,289.580139 
	C88.088966,288.260406 88.675797,286.745026 89.518036,284.995575 
	C89.221519,286.302490 88.669594,287.843506 87.809906,289.580139 
z"/>
<path fill="#3A3306" opacity="1.000000" stroke="none" 
	d="
M161.911865,288.783478 
	C161.272964,287.963776 160.654709,286.780975 160.014832,285.251190 
	C160.639648,286.076263 161.286057,287.248322 161.911865,288.783478 
z"/>
<path fill="#3A3306" opacity="1.000000" stroke="none" 
	d="
M149.928741,261.761627 
	C149.296570,261.035645 148.691650,259.955475 148.022461,258.579956 
	C148.624130,259.325562 149.290070,260.366516 149.928741,261.761627 
z"/>
<path fill="#3A3306" opacity="1.000000" stroke="none" 
	d="
M76.128342,177.446045 
	C75.863960,178.555191 75.258301,179.810638 74.378448,181.293716 
	C74.665192,180.211670 75.226120,178.902008 76.128342,177.446045 
z"/>
<path fill="#3A3306" opacity="1.000000" stroke="none" 
	d="
M79.726364,171.765823 
	C80.269806,170.916840 80.813248,170.067856 81.613281,169.048950 
	C81.869873,168.879028 82.110504,169.102463 82.125259,169.498535 
	C81.453491,170.623291 80.766960,171.351974 79.991951,172.001892 
	C79.903473,171.923141 79.726364,171.765823 79.726364,171.765823 
z"/>
<path fill="#3A3306" opacity="1.000000" stroke="none" 
	d="
M86.355827,292.950317 
	C86.410896,292.130127 86.758110,291.128510 87.327370,289.896576 
	C87.248932,290.700470 86.948448,291.734711 86.355827,292.950317 
z"/>
<path fill="#3A3306" opacity="1.000000" stroke="none" 
	d="
M148.185638,267.123230 
	C148.826202,267.948730 149.450058,269.128662 150.092621,270.649933 
	C149.463852,269.820068 148.816391,268.648865 148.185638,267.123230 
z"/>
<path fill="#808186" opacity="1.000000" stroke="none" 
	d="
M151.334839,119.800278 
	C151.087738,119.034538 151.064194,118.020790 151.175171,116.702713 
	C151.392593,117.449684 151.475494,118.500977 151.334839,119.800278 
z"/>
<path fill="#3A3306" opacity="1.000000" stroke="none" 
	d="
M91.793884,250.257614 
	C90.844261,249.820328 89.974579,249.284149 88.912140,248.504608 
	C88.719383,248.261246 88.943527,248.054764 89.351471,248.040833 
	C90.484543,248.396805 91.209663,248.766724 91.921509,249.109711 
	C91.908218,249.082809 91.861397,249.120468 91.881836,249.335724 
	C91.902283,249.550980 92.035507,249.962387 92.035507,249.962387 
	C92.035507,249.962387 91.873825,250.158722 91.793884,250.257614 
z"/>
<path fill="#DAD136" opacity="1.000000" stroke="none" 
	d="
M158.258453,164.806152 
	C158.628326,164.959122 158.998199,165.112106 159.653168,165.378204 
	C160.024979,165.747559 160.169418,165.965561 160.451202,166.328064 
	C160.530792,166.510818 160.236099,166.796219 159.823212,166.791870 
	C159.026382,166.127060 158.642426,165.466599 158.258453,164.806152 
z"/>
<path fill="#292209" opacity="1.000000" stroke="none" 
	d="
M125.948059,311.685669 
	C125.654953,310.922455 125.366219,309.804199 125.088326,308.331665 
	C125.383591,309.095123 125.668007,310.212891 125.948059,311.685669 
z"/>
<path fill="#3A3306" opacity="1.000000" stroke="none" 
	d="
M83.596268,290.041626 
	C83.510712,290.862671 83.139954,291.865082 82.518188,293.070068 
	C82.615135,292.256104 82.963097,291.239594 83.596268,290.041626 
z"/>
<path fill="#3A3306" opacity="1.000000" stroke="none" 
	d="
M151.947311,251.543167 
	C152.245636,251.070328 152.853348,250.580048 153.756714,250.050690 
	C153.453812,250.516342 152.855255,251.021042 151.947311,251.543167 
z"/>
<path fill="#3A3306" opacity="1.000000" stroke="none" 
	d="
M120.158463,313.358704 
	C120.163307,313.039886 120.530304,313.017395 120.713806,313.006104 
	C120.965874,313.190460 121.034447,313.386078 121.220367,314.127808 
	C121.311760,315.033356 121.285820,315.392853 121.259872,315.752319 
	C121.259872,315.752319 121.052124,315.934845 120.946930,316.026245 
	C120.612358,315.304260 120.382988,314.490875 120.158463,313.358704 
z"/>
<path fill="#3A3306" opacity="1.000000" stroke="none" 
	d="
M150.916290,264.033081 
	C150.613708,263.800049 150.257446,263.237640 149.893341,262.331177 
	C150.211212,262.559296 150.536926,263.131531 150.916290,264.033081 
z"/>
<path fill="#3A3306" opacity="1.000000" stroke="none" 
	d="
M171.785553,180.964203 
	C171.797958,181.279099 171.360947,181.188309 171.166977,181.107666 
	C170.973007,181.027023 170.964874,181.051575 170.958801,180.743225 
	C170.880219,180.030609 170.807693,179.626343 170.735168,179.222076 
	C170.735168,179.222076 170.959595,179.040009 171.072876,178.948334 
	C171.381821,179.454193 171.577484,180.051758 171.785553,180.964203 
z"/>
<path fill="#3A3306" opacity="1.000000" stroke="none" 
	d="
M170.100464,232.777954 
	C170.098022,232.418289 170.318375,231.845093 170.784485,231.078461 
	C170.794571,231.444839 170.558899,232.004623 170.100464,232.777954 
z"/>
<path fill="#3A3306" opacity="1.000000" stroke="none" 
	d="
M150.019562,252.709290 
	C150.179413,252.401001 150.635757,252.036102 151.386414,251.601746 
	C151.225815,251.905762 150.770920,252.279205 150.019562,252.709290 
z"/>
<path fill="#3A3306" opacity="1.000000" stroke="none" 
	d="
M155.926208,248.829254 
	C155.968323,248.512100 156.187027,248.246429 156.664124,247.924255 
	C156.649261,248.205414 156.376038,248.543091 155.926208,248.829254 
z"/>
<path fill="#3A3306" opacity="1.000000" stroke="none" 
	d="
M78.892593,172.868698 
	C78.991226,172.537598 79.199471,172.315369 79.569061,171.931366 
	C79.726364,171.765823 79.903473,171.923141 79.925186,172.239563 
	C79.786079,172.864716 79.540436,173.073807 79.209961,173.183243 
	C79.209961,173.183243 78.998154,172.973770 78.892593,172.868698 
z"/>
<path fill="#3A3306" opacity="1.000000" stroke="none" 
	d="
M166.183090,171.841034 
	C166.478439,171.986374 166.689362,172.205154 167.055511,172.590744 
	C167.212845,172.755524 167.019958,172.959290 166.704254,172.941040 
	C166.118744,172.695740 165.967957,172.406586 165.936188,172.055374 
	C165.936188,172.055374 166.100769,171.912460 166.183090,171.841034 
z"/>
<path fill="#3A3306" opacity="1.000000" stroke="none" 
	d="
M151.740921,266.028931 
	C151.572296,265.999878 151.345367,265.705200 151.126923,265.117371 
	C151.317810,265.137238 151.500214,265.450256 151.740921,266.028931 
z"/>
<path fill="#D6D141" opacity="1.000000" stroke="none" 
	d="
M214.854401,196.850769 
	C214.844742,196.913635 214.787827,196.929413 214.773468,196.927261 
	C214.759109,196.925110 214.864044,196.787888 214.854401,196.850769 
z"/>
<path fill="#D6D141" opacity="1.000000" stroke="none" 
	d="
M217.611725,196.498535 
	C217.559265,196.661102 217.260941,196.738510 216.724274,196.828308 
	C216.733185,196.615234 217.026520,196.472794 217.611725,196.498535 
z"/>
<path fill="#3A3306" opacity="1.000000" stroke="none" 
	d="
M34.253147,234.111786 
	C34.210716,234.291382 33.861897,234.532303 33.185097,234.773438 
	C33.220333,234.573471 33.583546,234.373291 34.253147,234.111786 
z"/>
<path fill="#3A3306" opacity="1.000000" stroke="none" 
	d="
M17.128075,240.323608 
	C17.234234,240.294678 17.241165,240.639084 17.142658,240.779190 
	C16.854469,240.734909 16.847057,240.545990 17.128075,240.323608 
z"/>
<path fill="#3A3306" opacity="1.000000" stroke="none" 
	d="
M165.133728,240.157623 
	C165.026581,240.484238 164.816681,240.704956 164.437439,241.079468 
	C164.273834,241.238693 164.097031,241.081848 164.069733,240.756836 
	C164.309097,240.240097 164.575745,240.048355 164.842392,239.856613 
	C164.842392,239.856613 165.036728,240.057175 165.133728,240.157623 
z"/>
<path fill="#808186" opacity="1.000000" stroke="none" 
	d="
M146.537506,113.965408 
	C145.600342,114.647820 144.199890,115.879539 142.786514,115.894539 
	C129.187744,116.038841 115.586548,116.011810 101.986855,115.917648 
	C100.790413,115.909370 99.599670,115.077797 98.199478,114.304001 
	C114.017860,113.969650 130.043030,113.959923 146.537506,113.965408 
z"/>
<path fill="#E8E127" opacity="1.000000" stroke="none" 
	d="
M77.664009,234.270950 
	C68.366814,220.343201 66.906830,205.308746 71.578262,189.151947 
	C71.822754,188.860886 72.075409,189.042007 72.138931,189.553009 
	C71.945488,192.378235 71.971008,194.766953 71.383751,196.994080 
	C68.493774,207.954117 71.496628,217.985428 75.903641,227.850037 
	C76.777168,229.805313 77.471222,231.840775 78.101196,233.946060 
	C77.954353,234.052856 77.664009,234.270950 77.664009,234.270950 
z"/>
<path fill="#E8E127" opacity="1.000000" stroke="none" 
	d="
M88.480637,246.603592 
	C86.045334,244.301498 83.610031,241.999405 80.914307,239.489716 
	C80.121468,238.420532 79.589050,237.558929 79.090332,236.288147 
	C79.124031,235.878967 79.365524,235.646667 79.640251,235.829971 
	C81.968513,237.682434 83.829720,239.717499 86.126129,240.924576 
	C88.767998,242.313232 89.171997,244.099442 88.480637,246.603592 
z"/>
<path fill="#E8E127" opacity="1.000000" stroke="none" 
	d="
M79.003113,235.994934 
	C78.523445,235.683624 78.164703,235.256348 77.734985,234.550018 
	C77.664009,234.270950 77.954353,234.052856 78.253647,234.164307 
	C78.823799,234.732712 79.094658,235.189697 79.365524,235.646667 
	C79.365524,235.646667 79.124031,235.878967 79.003113,235.994934 
z"/>
<path fill="#D5CC2B" opacity="1.000000" stroke="none" 
	d="
M44.556553,198.893509 
	C49.978340,198.945084 55.085659,199.159760 60.192974,199.374451 
	C60.197479,200.122910 60.201981,200.871353 60.206486,201.619812 
	C58.621910,201.706512 57.026291,201.954712 55.454987,201.847305 
	C51.851162,201.600967 48.255539,201.210159 44.671642,200.758560 
	C44.460327,200.731918 44.382191,199.648346 44.556553,198.893509 
z"/>
<path fill="#DDD430" opacity="1.000000" stroke="none" 
	d="
M29.541473,196.931091 
	C32.304146,196.931076 35.066822,196.931076 38.549515,196.931076 
	C34.867218,200.327454 34.867218,200.327454 21.455063,198.168518 
	C24.164530,197.596710 26.853001,197.263901 29.541473,196.931091 
z"/>
<path fill="#D6D141" opacity="1.000000" stroke="none" 
	d="
M29.127457,196.748077 
	C26.853001,197.263901 24.164530,197.596710 21.046598,198.035065 
	C17.795246,197.407455 14.973354,196.674332 12.173046,195.559937 
	C12.194631,195.178665 12.071322,195.026245 12.133039,195.102264 
	C17.700983,195.640549 23.207211,196.102814 29.127457,196.748077 
z"/>
<path fill="#EAE045" opacity="1.000000" stroke="none" 
	d="
M114.022087,137.270325 
	C115.270569,137.336136 116.519043,137.401947 117.965187,138.109680 
	C118.107574,146.909073 118.142563,155.068481 117.966080,163.223328 
	C117.843483,168.888000 117.430069,174.546402 117.035538,179.858337 
	C115.425026,174.737930 112.517426,174.719177 108.903015,176.737854 
	C108.953003,175.570038 108.990356,174.792938 109.352814,173.873230 
	C110.820381,173.395721 111.962845,173.060806 113.458115,172.752563 
	C114.518066,172.789825 115.225197,172.800385 116.151382,172.560303 
	C116.517670,171.219437 116.664909,170.129196 116.821167,168.567932 
	C116.641983,160.349411 116.453781,152.601883 116.252785,144.682327 
	C116.239998,144.510300 116.206192,144.166931 116.243324,143.933945 
	C116.280457,143.700958 116.332550,143.232010 116.463089,142.932175 
	C115.736450,140.845001 114.879265,139.057678 114.022087,137.270325 
z"/>
<path fill="#DAD136" opacity="1.000000" stroke="none" 
	d="
M128.172699,137.515198 
	C128.592682,137.440323 129.012680,137.365433 129.724747,137.648605 
	C129.965805,138.661407 129.914780,139.316132 129.851028,140.189743 
	C129.838303,140.408615 129.856735,140.846786 129.692825,141.235703 
	C129.641922,150.796951 129.754913,159.969284 129.866577,169.483780 
	C130.546692,170.844498 131.228119,171.863052 132.304382,172.913239 
	C133.487534,172.917252 134.275879,172.889603 135.405853,172.894485 
	C136.656006,173.401352 137.564514,173.875702 138.473022,174.350052 
	C138.334030,174.789032 138.195038,175.228012 138.056046,175.666992 
	C136.418076,175.577667 134.780121,175.488327 133.419220,175.304657 
	C134.157364,175.001526 134.618439,174.792755 136.008026,174.163513 
	C133.984283,174.163513 133.020187,174.163513 131.658569,174.166138 
	C130.213150,174.097763 129.165237,174.026764 128.121017,173.489899 
	C128.140717,161.187759 128.156708,149.351486 128.172699,137.515198 
z"/>
<path fill="#6A5F02" opacity="1.000000" stroke="none" 
	d="
M117.146584,180.207596 
	C117.430069,174.546402 117.843483,168.888000 117.966080,163.223328 
	C118.142563,155.068481 118.107574,146.909073 118.304916,138.284088 
	C118.446991,137.816574 118.436935,137.885696 118.672516,138.262146 
	C119.095154,139.448837 119.282219,140.259079 119.407104,141.368530 
	C119.373749,142.072784 119.402565,142.477859 119.353226,143.213593 
	C119.328964,143.989548 119.382851,144.434814 119.364304,145.350800 
	C119.336807,151.913147 119.381752,158.004791 119.373703,164.299500 
	C119.320702,164.502579 119.428429,164.908279 119.360275,165.319458 
	C119.309212,166.840546 119.326302,167.950424 119.287827,169.453217 
	C119.373917,171.141724 119.515594,172.437317 119.696106,174.077469 
	C121.416618,174.916321 123.098297,175.410614 124.432678,175.879517 
	C122.759445,176.056107 121.433510,176.258087 119.845604,176.747742 
	C119.064095,178.736633 118.544563,180.437881 117.753769,182.098602 
	C117.299767,182.052109 117.117020,182.046127 117.032303,181.744965 
	C117.135765,181.035706 117.141174,180.621658 117.146584,180.207596 
z"/>
<path fill="#F0E81A" opacity="1.000000" stroke="none" 
	d="
M120.749146,137.456360 
	C122.550026,137.406494 124.350906,137.356613 126.561188,137.829224 
	C126.913597,149.919815 126.856606,161.487946 126.630127,172.674255 
	C126.300110,163.407608 126.057571,154.523117 126.019646,145.637772 
	C126.004616,142.117081 125.026695,139.819809 121.004700,139.523499 
	C120.889168,138.558868 120.819160,138.007614 120.749146,137.456360 
z"/>
<path fill="#F3EC18" opacity="1.000000" stroke="none" 
	d="
M113.557899,137.223724 
	C114.879265,139.057678 115.736450,140.845001 116.252090,142.584137 
	C114.239975,141.702652 112.626122,140.332306 110.886948,140.148636 
	C107.333542,139.773361 103.712723,140.036346 100.114983,139.714142 
	C100.137695,138.748184 100.165108,138.104568 100.192513,137.460938 
	C104.492912,137.366333 108.793312,137.271729 113.557899,137.223724 
z"/>
<path fill="#FAED20" opacity="1.000000" stroke="none" 
	d="
M129.863754,139.970856 
	C129.914780,139.316132 129.965805,138.661407 130.043335,137.679718 
	C134.723541,137.295898 139.377258,137.238998 144.619446,137.461441 
	C145.452133,138.208969 145.696350,138.677170 145.552124,139.261368 
	C140.063721,139.575195 134.963730,139.773026 129.863754,139.970856 
z"/>
<path fill="#6A5F02" opacity="1.000000" stroke="none" 
	d="
M126.799606,173.056076 
	C126.856606,161.487946 126.913597,149.919815 126.943436,137.920273 
	C127.126869,137.417206 127.337471,137.345551 127.860382,137.394531 
	C128.156708,149.351486 128.140717,161.187759 127.856125,173.497589 
	C127.410889,173.969727 127.234245,173.968323 126.995697,173.738770 
	C126.933807,173.510620 126.799606,173.056076 126.799606,173.056076 
z"/>
<path fill="#DAD136" opacity="1.000000" stroke="none" 
	d="
M145.940552,139.145370 
	C145.696350,138.677170 145.452133,138.208969 145.079834,137.509308 
	C145.526550,137.325882 146.101349,137.373917 146.937561,137.557892 
	C147.196991,142.347931 147.468475,147.023315 147.108353,151.649536 
	C146.808395,155.502731 148.004501,158.046982 151.381561,159.756256 
	C147.269119,159.978577 146.118500,157.539886 146.090820,154.111679 
	C146.050537,149.122833 145.991562,144.134140 145.940552,139.145370 
z"/>
<path fill="#EAE045" opacity="1.000000" stroke="none" 
	d="
M99.854675,137.442505 
	C100.165108,138.104568 100.137695,138.748184 100.060036,140.175278 
	C99.952477,145.961197 99.895172,150.963654 99.635880,155.942474 
	C99.433884,155.918839 99.031654,155.858475 99.031654,155.858475 
	C98.976669,150.043259 98.921692,144.228058 98.861488,137.991791 
	C99.076454,137.521851 99.296654,137.472961 99.854675,137.442505 
z"/>
<path fill="#E5DF18" opacity="1.000000" stroke="none" 
	d="
M119.469284,141.069336 
	C119.282219,140.259079 119.095154,139.448837 118.706192,138.271362 
	C118.762077,137.849136 119.019859,137.794113 119.681473,138.084961 
	C120.093689,138.941040 120.102051,139.451218 120.102699,140.206116 
	C120.094986,140.450836 120.102448,140.940002 119.947968,140.990997 
	C119.793495,141.042007 119.469284,141.069336 119.469284,141.069336 
z"/>
<path fill="#EAE045" opacity="1.000000" stroke="none" 
	d="
M120.110413,139.961411 
	C120.102051,139.451218 120.093689,138.941040 120.074898,138.045731 
	C120.064476,137.660614 120.378647,137.465302 120.563896,137.460831 
	C120.819160,138.007614 120.889168,138.558868 120.967384,139.555359 
	C120.975594,140.000580 120.906250,140.067596 120.707596,140.038788 
	C120.508934,140.009964 120.110413,139.961411 120.110413,139.961411 
z"/>
<path fill="#808186" opacity="1.000000" stroke="none" 
	d="
M97.470200,122.000603 
	C96.941528,118.931931 98.681343,117.997826 101.432060,118.005264 
	C114.326401,118.040146 127.223152,117.909332 140.112473,118.166573 
	C141.727509,118.198807 143.303650,120.180588 144.950775,121.644394 
	C129.315155,122.029388 113.626556,122.029060 97.470200,122.000603 
z"/>
<path fill="#EEE248" opacity="1.000000" stroke="none" 
	d="
M121.668175,315.855896 
	C121.285820,315.392853 121.311760,315.033356 121.360519,314.405396 
	C121.577385,307.894043 121.880432,301.652283 121.940964,295.408112 
	C122.041725,285.012970 121.987022,274.616272 121.959976,263.778717 
	C122.611526,264.600464 123.889359,265.858551 123.900574,267.127808 
	C124.035141,282.370941 124.019104,297.615997 123.896324,312.859375 
	C123.887955,313.897583 122.710320,314.926300 121.668175,315.855896 
z"/>
<path fill="#E8E127" opacity="1.000000" stroke="none" 
	d="
M92.346329,250.038971 
	C92.035507,249.962387 91.902283,249.550980 92.239853,249.308746 
	C93.753029,249.682632 94.928627,250.298767 95.943878,251.079742 
	C95.783531,251.244598 95.472885,251.583801 95.472885,251.583801 
	C94.534309,251.094391 93.595734,250.604980 92.346329,250.038971 
z"/>
<path fill="#E8E127" opacity="1.000000" stroke="none" 
	d="
M96.815620,252.190918 
	C96.351486,252.313782 96.050438,252.188766 95.632187,251.773102 
	C95.472885,251.583801 95.783531,251.244598 96.123535,251.217346 
	C96.701180,251.376587 96.938805,251.563080 97.176422,251.749573 
	C97.176422,251.749573 96.936607,252.044388 96.815620,252.190918 
z"/>
<path fill="#FDF105" opacity="1.000000" stroke="none" 
	d="
M97.553329,251.819397 
	C96.938805,251.563080 96.701180,251.376587 96.283890,251.052505 
	C94.928627,250.298767 93.753029,249.682632 92.219414,249.093491 
	C91.861397,249.120468 91.908218,249.082809 91.840927,248.771255 
	C90.685829,247.835739 89.598015,247.211761 88.510201,246.587799 
	C88.510201,246.587799 88.493202,246.585312 88.486916,246.594452 
	C89.171997,244.099442 88.767998,242.313232 86.126129,240.924576 
	C83.829720,239.717499 81.968513,237.682434 79.640251,235.829971 
	C79.094658,235.189697 78.823799,234.732712 78.400482,234.057495 
	C77.471222,231.840775 76.777168,229.805313 75.903641,227.850037 
	C71.496628,217.985428 68.493774,207.954117 71.383751,196.994080 
	C71.971008,194.766953 71.945488,192.378235 72.265305,189.643524 
	C74.193352,186.351471 76.212761,183.563660 77.842018,180.563934 
	C78.429848,179.481644 78.081223,177.890732 78.074265,176.246964 
	C77.988602,175.962006 78.012093,176.009903 78.200264,175.860901 
	C78.567894,175.416260 78.747360,175.120636 78.926826,174.825012 
	C78.926826,174.825012 78.894997,174.926559 79.185394,174.827454 
	C80.910927,172.725830 82.346062,170.723312 83.781189,168.720795 
	C83.781197,168.720795 83.787186,168.794357 84.119247,168.770767 
	C85.570786,167.406082 86.690262,166.064987 87.809738,164.723892 
	C87.809738,164.723892 87.801949,164.795883 88.084854,164.809662 
	C89.432579,163.739090 90.497398,162.654739 91.562218,161.570389 
	C91.562218,161.570389 91.595375,161.635223 91.837418,161.561829 
	C92.381180,161.255844 92.682892,161.023270 92.984604,160.790710 
	C92.984596,160.790695 92.933441,160.916428 93.261726,160.904770 
	C96.475395,160.268753 99.777847,160.173279 99.837868,155.966110 
	C99.895172,150.963654 99.952477,145.961197 100.064728,140.497604 
	C103.712723,140.036346 107.333542,139.773361 110.886948,140.148636 
	C112.626122,140.332306 114.239975,141.702652 116.121552,142.883972 
	C116.332550,143.232010 116.280457,143.700958 115.940147,143.888870 
	C115.398560,144.053177 115.197281,144.029587 114.976486,143.975800 
	C114.956970,143.945633 115.006012,143.995941 115.197891,144.163208 
	C115.681702,144.505096 115.973633,144.679733 116.265572,144.854355 
	C116.453781,152.601883 116.641983,160.349411 116.675171,168.856888 
	C116.324211,170.681534 116.128265,171.746231 115.932327,172.810928 
	C115.225197,172.800385 114.518066,172.789825 113.429932,172.498657 
	C111.425766,170.072815 110.782852,170.294525 107.898331,174.190094 
	C107.849663,174.402740 107.742538,174.825699 107.394501,174.883469 
	C97.032806,179.235336 97.152733,179.191376 100.630737,188.678925 
	C102.216347,193.004272 104.454704,193.740036 108.378525,191.008224 
	C109.811783,190.650070 110.904243,190.326767 112.369629,189.970184 
	C114.508545,188.637695 116.274551,187.338470 118.333267,185.985779 
	C119.599319,184.613724 120.572678,183.295120 121.244202,182.385406 
	C123.794983,183.250031 126.395897,184.131638 128.995667,185.008881 
	C128.994507,185.004517 128.988770,184.999176 128.989166,185.389618 
	C129.814407,187.244568 130.466492,188.845840 131.496933,190.147583 
	C134.417786,193.837402 138.354385,192.221085 142.213867,192.070267 
	C142.912628,192.133270 143.416000,192.052582 143.919388,191.971893 
	C143.278717,191.679306 142.638031,191.386734 141.978378,190.821075 
	C141.948563,190.365845 141.937729,190.183685 142.050934,189.738647 
	C142.752716,188.991486 143.330475,188.507202 144.121323,187.928680 
	C144.120529,187.288513 143.906631,186.742584 143.681305,186.231628 
	C143.669876,186.266602 143.599701,186.244431 143.802246,185.927307 
	C144.004562,183.740234 144.004318,181.870255 144.134842,179.758881 
	C145.397675,174.917969 141.793854,172.801498 138.987991,170.879456 
	C137.792328,170.060394 135.033386,171.523438 132.800873,172.099442 
	C132.372879,172.450958 132.137100,172.661682 131.909561,172.881607 
	C131.228119,171.863052 130.546692,170.844498 129.901031,169.001923 
	C129.910110,159.067535 129.883423,149.957153 129.856735,140.846786 
	C129.856735,140.846786 129.838303,140.408615 129.851028,140.189728 
	C134.963730,139.773026 140.063721,139.575195 145.552124,139.261368 
	C145.991562,144.134140 146.050537,149.122833 146.090820,154.111679 
	C146.118500,157.539886 147.269119,159.978577 151.594727,160.038239 
	C151.993073,160.041168 151.976013,160.026245 152.112701,160.241272 
	C152.557770,160.614609 152.866119,160.772949 153.174484,160.931274 
	C153.174484,160.931274 153.047470,160.939423 153.175323,161.197845 
	C154.951294,162.583893 156.599396,163.711517 158.247498,164.839142 
	C158.247498,164.839142 158.253815,164.842728 158.256134,164.824432 
	C158.642426,165.466599 159.026382,166.127060 159.673645,166.932190 
	C160.799332,168.000961 161.661713,168.925064 162.850159,169.866272 
	C163.176224,169.883377 163.110016,169.930511 163.166687,170.242249 
	C164.990738,172.524429 166.758148,174.494873 168.525543,176.465317 
	C168.525543,176.465317 168.537247,176.539062 168.560547,176.819412 
	C168.797775,177.398758 169.011703,177.697754 169.225632,177.996750 
	C169.225632,177.996750 169.089584,177.921967 169.105133,178.194550 
	C169.735413,179.328613 170.350143,180.190094 170.964874,181.051575 
	C170.964874,181.051575 170.973007,181.027023 170.959381,181.025757 
	C171.815765,183.524933 172.685776,186.025360 173.856903,188.710068 
	C174.158005,188.894348 174.094528,188.892014 174.078781,189.222473 
	C174.408279,190.439560 174.753525,191.326187 175.098755,192.212814 
	C175.098755,192.212814 175.200195,192.303101 175.099640,192.794250 
	C175.505707,195.080704 176.012314,196.876022 176.518921,198.671341 
	C176.518906,198.671341 176.513397,198.710983 176.376495,199.191193 
	C176.301788,203.690048 176.363983,207.708694 176.426178,211.727356 
	C176.426178,211.727356 176.578247,211.899979 176.242767,212.249710 
	C174.951843,216.759521 173.996384,220.919617 173.040909,225.079697 
	C173.040909,225.079697 173.005280,225.007324 172.832275,225.216522 
	C172.468781,226.002075 172.278290,226.578400 172.087814,227.154739 
	C172.087814,227.154739 172.073120,227.096603 172.103241,227.100128 
	C171.096329,228.849106 170.059311,230.594559 169.028351,232.714539 
	C169.034409,233.089066 169.002808,233.016220 168.844116,233.184021 
	C168.556168,233.679855 168.426895,234.007874 168.297623,234.335907 
	C168.033478,234.546661 167.769333,234.757416 167.122513,234.580154 
	C167.228210,231.776703 167.506058,229.294846 168.243317,226.957932 
	C170.740448,219.042664 168.817078,209.132996 162.995438,204.959045 
	C156.725266,200.463516 149.509094,201.001938 143.146469,204.505173 
	C132.619812,210.301132 126.209076,219.462524 125.389526,231.651108 
	C124.903915,238.873383 126.634262,245.614029 134.160309,249.493103 
	C135.463257,250.135849 136.682129,250.497375 138.317215,250.846222 
	C139.848480,250.827194 140.963547,250.820862 142.078598,250.814529 
	C144.425720,253.499283 141.418900,254.062149 140.056992,255.561249 
	C130.267883,257.619415 120.696640,259.509583 111.034355,256.289520 
	C106.662994,254.832733 102.298080,253.356583 97.553329,251.819397 
M83.966194,236.502899 
	C83.966194,236.502899 83.996155,236.478821 83.966194,236.502899 
z"/>
<path fill="#FCFE6D" opacity="1.000000" stroke="none" 
	d="
M142.389435,250.646179 
	C140.963547,250.820862 139.848480,250.827194 138.087097,250.654358 
	C136.319260,250.054108 135.197754,249.633011 134.076233,249.211914 
	C126.634262,245.614029 124.903915,238.873383 125.389526,231.651108 
	C126.209076,219.462524 132.619812,210.301132 143.146469,204.505173 
	C149.509094,201.001938 156.725266,200.463516 162.995438,204.959045 
	C168.817078,209.132996 170.740448,219.042664 168.243317,226.957932 
	C167.506058,229.294846 167.228210,231.776703 166.865021,234.605438 
	C166.990219,235.018738 166.984421,234.967148 166.672607,234.965454 
	C166.132492,235.962234 165.904205,236.960709 165.675903,237.959167 
	C165.463348,238.369568 165.250778,238.779968 164.940308,239.523483 
	C164.575745,240.048355 164.309097,240.240097 163.981339,240.678436 
	C162.176651,242.521683 160.433075,244.118317 158.399384,245.843597 
	C156.293472,246.238113 154.404358,246.272324 152.677521,246.819092 
	C149.303833,247.887268 146.020813,249.241837 142.389435,250.646179 
M158.080292,224.856003 
	C156.597702,224.886642 155.055313,224.663437 153.643814,224.995911 
	C149.561523,225.957489 146.734283,228.649567 146.380127,232.758102 
	C146.180695,235.071854 146.953979,238.190460 148.494019,239.776489 
	C151.320206,242.687103 157.264374,240.584641 160.331635,236.174362 
	C163.816086,231.164215 163.431534,228.169952 158.080292,224.856003 
z"/>
<path fill="#DAD136" opacity="1.000000" stroke="none" 
	d="
M173.292114,224.838531 
	C173.996384,220.919617 174.951843,216.759521 176.183136,212.348053 
	C176.222672,214.026810 175.986374,215.956940 175.695450,218.301514 
	C174.941650,220.676407 174.242477,222.636887 173.292114,224.838531 
z"/>
<path fill="#DAD136" opacity="1.000000" stroke="none" 
	d="
M172.341095,226.962601 
	C172.278290,226.578400 172.468781,226.002075 172.868469,225.198761 
	C172.916565,225.571335 172.755478,226.170898 172.341095,226.962601 
z"/>
<path fill="#E8E127" opacity="1.000000" stroke="none" 
	d="
M99.635880,155.942474 
	C99.777847,160.173279 96.475395,160.268753 93.199020,160.878784 
	C94.778992,159.402405 96.749947,157.940338 98.876282,156.168365 
	C99.031654,155.858475 99.433884,155.918839 99.635880,155.942474 
z"/>
<path fill="#E8E127" opacity="1.000000" stroke="none" 
	d="
M91.298370,161.653687 
	C90.497398,162.654739 89.432579,163.739090 88.049011,164.804565 
	C88.236458,164.197891 88.742661,163.610062 89.421036,162.785034 
	C90.073654,162.277557 90.554085,162.007278 91.298370,161.653687 
z"/>
<path fill="#E8E127" opacity="1.000000" stroke="none" 
	d="
M92.687851,160.829422 
	C92.682892,161.023270 92.381180,161.255844 91.803055,161.573837 
	C91.814789,161.395554 92.102951,161.131836 92.687851,160.829422 
z"/>
<path fill="#DAD136" opacity="1.000000" stroke="none" 
	d="
M176.610092,211.311768 
	C176.363983,207.708694 176.301788,203.690048 176.356537,199.189743 
	C176.580307,202.770798 176.687164,206.833496 176.610092,211.311768 
z"/>
<path fill="#DAD136" opacity="1.000000" stroke="none" 
	d="
M176.535019,198.266373 
	C176.012314,196.876022 175.505707,195.080704 175.055176,192.845551 
	C175.591202,194.224289 176.071167,196.042847 176.535019,198.266373 
z"/>
<path fill="#DAD136" opacity="1.000000" stroke="none" 
	d="
M175.137268,191.844116 
	C174.753525,191.326187 174.408279,190.439560 174.092972,189.194336 
	C174.473862,189.715622 174.824814,190.595520 175.137268,191.844116 
z"/>
<path fill="#DAD136" opacity="1.000000" stroke="none" 
	d="
M158.132919,164.540009 
	C156.599396,163.711517 154.951294,162.583893 153.171600,161.134308 
	C153.423309,160.909058 153.806625,161.005768 154.474792,161.189636 
	C155.845886,162.264847 156.932114,163.252884 158.132919,164.540009 
z"/>
<path fill="#DAD136" opacity="1.000000" stroke="none" 
	d="
M153.069244,160.671326 
	C152.866119,160.772949 152.557770,160.614609 152.104065,160.236298 
	C152.293808,160.148010 152.628906,160.279678 153.069244,160.671326 
z"/>
<path fill="#E8E127" opacity="1.000000" stroke="none" 
	d="
M88.606155,246.807205 
	C89.598015,247.211761 90.685829,247.835739 91.854218,248.798157 
	C91.209663,248.766724 90.484543,248.396805 89.463455,247.937500 
	C89.094124,247.527969 88.938988,247.254150 88.606155,246.807205 
z"/>
<path fill="#FDF105" opacity="1.000000" stroke="none" 
	d="
M165.924469,237.814301 
	C165.904205,236.960709 166.132492,235.962234 166.698090,234.972626 
	C166.747955,235.877472 166.460495,236.773453 165.924469,237.814301 
z"/>
<path fill="#DAD136" opacity="1.000000" stroke="none" 
	d="
M168.539520,234.192734 
	C168.426895,234.007874 168.556168,233.679855 168.879913,233.166840 
	C168.976730,233.337753 168.879074,233.693649 168.539520,234.192734 
z"/>
<path fill="#DAD136" opacity="1.000000" stroke="none" 
	d="
M168.415741,176.169739 
	C166.758148,174.494873 164.990738,172.524429 163.140976,170.210785 
	C163.843201,170.483200 164.627808,171.098831 165.674286,171.884918 
	C165.967957,172.406586 166.118744,172.695740 166.607590,173.042725 
	C167.319717,174.066467 167.812820,174.970322 168.415741,176.169739 
z"/>
<path fill="#DAD136" opacity="1.000000" stroke="none" 
	d="
M170.958801,180.743225 
	C170.350143,180.190094 169.735413,179.328613 169.142914,178.126740 
	C169.543594,178.158676 169.922012,178.530991 170.517807,179.062683 
	C170.807693,179.626343 170.880219,180.030609 170.958801,180.743225 
z"/>
<path fill="#DAD136" opacity="1.000000" stroke="none" 
	d="
M169.229950,177.702667 
	C169.011703,177.697754 168.797775,177.398758 168.523804,176.825974 
	C168.720581,176.837646 168.977432,177.123123 169.229950,177.702667 
z"/>
<path fill="#E8E127" opacity="1.000000" stroke="none" 
	d="
M83.528152,168.785950 
	C82.346062,170.723312 80.910927,172.725830 79.134766,174.811081 
	C78.888847,174.515259 78.983948,174.136734 79.144501,173.470718 
	C79.540436,173.073807 79.786079,172.864716 80.013657,172.318298 
	C80.766960,171.351974 81.453491,170.623291 82.245422,169.610428 
	C82.658928,169.167877 82.967018,169.009491 83.528152,168.785950 
z"/>
<path fill="#E8E127" opacity="1.000000" stroke="none" 
	d="
M78.659851,174.916840 
	C78.747360,175.120636 78.567894,175.416260 78.173645,175.862122 
	C78.103531,175.677795 78.248199,175.343231 78.659851,174.916840 
z"/>
<path fill="#E8E127" opacity="1.000000" stroke="none" 
	d="
M87.517769,164.804077 
	C86.690262,166.064987 85.570786,167.406082 84.082382,168.772491 
	C84.150009,168.139389 84.586563,167.480957 85.149643,166.551178 
	C85.926056,165.814651 86.575928,165.349457 87.517769,164.804077 
z"/>
<path fill="#F3EC18" opacity="1.000000" stroke="none" 
	d="
M108.037727,191.043076 
	C104.454704,193.740036 102.216347,193.004272 100.630737,188.678925 
	C97.152733,179.191376 97.032806,179.235336 107.332726,175.164307 
	C107.397842,175.914886 107.176697,176.442398 106.670685,177.108307 
	C102.094383,179.911621 101.192871,182.905975 103.759361,186.353912 
	C104.872765,183.206863 105.962471,180.126801 107.235893,177.108078 
	C107.909866,177.155807 108.400116,177.142197 108.890366,177.128571 
	C112.517426,174.719177 115.425026,174.737930 117.035538,179.858337 
	C117.141174,180.621658 117.135765,181.035706 116.825859,181.965546 
	C116.111069,183.761673 115.700768,185.042038 115.290466,186.322403 
	C116.185913,186.209610 117.081367,186.096817 117.992874,185.997467 
	C118.008934,186.010925 118.040558,186.039261 118.040558,186.039261 
	C116.274551,187.338470 114.508545,188.637695 112.339561,189.685028 
	C110.144150,185.677170 108.096046,186.891998 105.574738,189.066345 
	C106.585884,189.877853 107.311806,190.460464 108.037727,191.043076 
z"/>
<path fill="#F3EC18" opacity="1.000000" stroke="none" 
	d="
M107.946991,173.977432 
	C110.782852,170.294525 111.425766,170.072815 113.077118,172.471970 
	C111.962845,173.060806 110.820381,173.395721 109.082504,173.862854 
	C108.307060,173.989197 108.127022,173.983307 107.946991,173.977432 
z"/>
<path fill="#F0E81A" opacity="1.000000" stroke="none" 
	d="
M107.898331,174.190094 
	C108.127022,173.983307 108.307060,173.989197 108.757401,174.005463 
	C108.990356,174.792938 108.953003,175.570038 108.903015,176.737854 
	C108.400116,177.142197 107.909866,177.155807 107.211960,177.088593 
	C107.004303,177.007767 106.955559,176.969894 106.955559,176.969894 
	C107.176697,176.442398 107.397842,175.914886 107.680756,175.106537 
	C107.742538,174.825699 107.849663,174.402740 107.898331,174.190094 
z"/>
<path fill="#F3EC18" opacity="1.000000" stroke="none" 
	d="
M116.151375,172.560303 
	C116.128265,171.746231 116.324211,170.681534 116.666145,169.327881 
	C116.664909,170.129196 116.517670,171.219437 116.151375,172.560303 
z"/>
<path fill="#F3EC18" opacity="1.000000" stroke="none" 
	d="
M116.252785,144.682327 
	C115.973633,144.679733 115.681702,144.505096 115.194885,144.165237 
	C115.000000,144.000000 114.995995,144.005981 114.995995,144.005981 
	C115.197281,144.029587 115.398560,144.053177 115.903015,144.121857 
	C116.206192,144.166931 116.239998,144.510300 116.252785,144.682327 
z"/>
<path fill="#F7EF09" opacity="1.000000" stroke="none" 
	d="
M132.984833,171.949402 
	C135.033386,171.523438 137.792328,170.060394 138.987991,170.879456 
	C141.793854,172.801498 145.397675,174.917969 143.876526,179.704590 
	C143.099319,182.042557 142.711166,184.193375 142.304153,186.351166 
	C142.285278,186.358109 142.254150,186.332611 141.787445,186.262115 
	C138.840607,186.170502 136.360489,186.149399 133.894699,186.089172 
	C133.909042,186.050064 133.987228,186.078842 133.749512,185.865921 
	C132.913635,185.456253 132.315506,185.259506 131.746979,185.069107 
	C131.776566,185.075439 131.836334,185.065826 131.626617,184.856659 
	C131.260513,184.287231 131.104126,183.926941 130.877991,183.219467 
	C130.395721,182.327545 129.983170,181.782822 129.408936,180.911392 
	C130.153061,178.713852 131.058853,176.843048 132.248978,175.106628 
	C132.736252,175.293671 132.939194,175.346329 133.142151,175.399002 
	C134.780121,175.488327 136.418076,175.577667 138.056046,175.666992 
	C138.195038,175.228012 138.334030,174.789032 138.473022,174.350052 
	C137.564514,173.875702 136.656006,173.401352 135.162491,172.746643 
	C134.046600,172.360672 133.515717,172.155045 132.984833,171.949402 
M141.497513,177.475128 
	C141.497513,177.475128 141.510239,177.512756 141.497513,177.475128 
z"/>
<path fill="#FAED20" opacity="1.000000" stroke="none" 
	d="
M129.692825,141.235703 
	C129.883423,149.957153 129.910110,159.067535 129.902359,168.659760 
	C129.754913,159.969284 129.641922,150.796951 129.692825,141.235703 
z"/>
<path fill="#8A7F10" opacity="1.000000" stroke="none" 
	d="
M131.964645,174.972229 
	C131.058853,176.843048 130.153061,178.713852 129.518585,181.235733 
	C130.175842,182.446747 130.561798,183.006699 130.947739,183.566666 
	C131.104126,183.926941 131.260513,184.287231 131.182587,185.115891 
	C130.295120,185.389252 129.641937,185.194214 128.988770,184.999176 
	C128.988770,184.999176 128.994507,185.004517 128.932114,184.660858 
	C128.198822,181.847183 127.527916,179.377167 126.831131,176.530487 
	C126.762672,175.401794 126.720108,174.649765 126.778008,173.885101 
	C126.878471,173.872452 127.057594,173.966919 127.057594,173.966919 
	C127.234245,173.968323 127.410889,173.969727 127.852417,173.963440 
	C129.165237,174.026764 130.213150,174.097763 131.632965,174.368011 
	C132.004852,174.567245 131.964645,174.972229 131.964645,174.972229 
z"/>
<path fill="#6A5F02" opacity="1.000000" stroke="none" 
	d="
M132.248978,175.106628 
	C131.964645,174.972229 132.004852,174.567245 132.030457,174.365387 
	C133.020187,174.163513 133.984283,174.163513 136.008026,174.163513 
	C134.618439,174.792755 134.157364,175.001526 133.419220,175.304657 
	C132.939194,175.346329 132.736252,175.293671 132.248978,175.106628 
z"/>
<path fill="#FAED20" opacity="1.000000" stroke="none" 
	d="
M132.800873,172.099426 
	C133.515717,172.155045 134.046600,172.360672 134.820862,172.714142 
	C134.275879,172.889603 133.487534,172.917252 132.304382,172.913239 
	C132.137100,172.661682 132.372879,172.450958 132.800873,172.099426 
z"/>
<path fill="#FDF105" opacity="1.000000" stroke="none" 
	d="
M119.407104,141.368530 
	C119.469284,141.069336 119.793495,141.042007 120.103531,140.867264 
	C120.608765,140.508636 120.772995,140.300323 120.906250,140.067596 
	C120.906250,140.067596 120.975594,140.000580 121.012909,139.968719 
	C125.026695,139.819809 126.004616,142.117081 126.019646,145.637772 
	C126.057571,154.523117 126.300110,163.407608 126.630127,172.674255 
	C126.799606,173.056076 126.933807,173.510620 126.995697,173.738770 
	C127.057594,173.966919 126.878471,173.872452 126.401428,173.890793 
	C121.749634,174.075256 121.230766,171.543716 121.162766,168.090897 
	C120.997536,159.701447 120.503448,151.318466 119.965218,142.906311 
	C119.788589,142.879745 119.431381,142.882919 119.431381,142.882919 
	C119.402565,142.477859 119.373749,142.072784 119.407104,141.368530 
z"/>
<path fill="#F0E81A" opacity="1.000000" stroke="none" 
	d="
M120.141846,142.932877 
	C120.503448,151.318466 120.997536,159.701447 121.162766,168.090897 
	C121.230766,171.543716 121.749634,174.075256 126.300964,173.903442 
	C126.720108,174.649765 126.762672,175.401794 126.506866,176.544846 
	C125.770844,176.926102 125.333191,176.916351 124.902130,176.652084 
	C124.865799,176.233337 124.822891,176.069122 124.779976,175.904892 
	C123.098297,175.410614 121.416618,174.916321 119.776054,173.792267 
	C119.659241,171.795105 119.501312,170.427704 119.343399,169.060318 
	C119.326302,167.950424 119.309212,166.840546 119.415253,165.224121 
	C119.603104,164.492706 119.565872,164.285645 119.426697,164.096420 
	C119.381752,158.004791 119.336807,151.913147 119.485657,145.122864 
	C119.833580,143.927109 119.987717,143.429993 120.141846,142.932877 
z"/>
<path fill="#F3EC18" opacity="1.000000" stroke="none" 
	d="
M124.895538,176.906601 
	C125.333191,176.916351 125.770844,176.926102 126.532761,176.921509 
	C127.527916,179.377167 128.198822,181.847183 128.933258,184.665222 
	C126.395897,184.131638 123.794983,183.250031 121.244202,182.385406 
	C120.572678,183.295120 119.599319,184.613724 118.333267,185.985779 
	C118.040558,186.039261 118.008934,186.010925 118.001839,185.613434 
	C118.004837,184.190338 118.014938,183.164719 118.025032,182.139114 
	C118.544563,180.437881 119.064095,178.736633 120.236694,176.805740 
	C122.225014,176.686249 123.560280,176.796417 124.895538,176.906601 
z"/>
<path fill="#F0E81A" opacity="1.000000" stroke="none" 
	d="
M117.753769,182.098602 
	C118.014938,183.164719 118.004837,184.190338 117.985779,185.599976 
	C117.081367,186.096817 116.185913,186.209610 115.290466,186.322403 
	C115.700768,185.042038 116.111069,183.761673 116.727814,182.260742 
	C117.117020,182.046127 117.299767,182.052109 117.753769,182.098602 
z"/>
<path fill="#E5DF18" opacity="1.000000" stroke="none" 
	d="
M119.287819,169.453217 
	C119.501312,170.427704 119.659241,171.795105 119.737213,173.447693 
	C119.515594,172.437317 119.373917,171.141724 119.287819,169.453217 
z"/>
<path fill="#8A7F10" opacity="1.000000" stroke="none" 
	d="
M124.902130,176.652084 
	C123.560280,176.796417 122.225014,176.686249 120.498665,176.518066 
	C121.433510,176.258087 122.759445,176.056107 124.432678,175.879517 
	C124.822891,176.069122 124.865799,176.233337 124.902130,176.652084 
z"/>
<path fill="#E5DF18" opacity="1.000000" stroke="none" 
	d="
M119.965218,142.906311 
	C119.987717,143.429993 119.833580,143.927109 119.558090,144.652161 
	C119.382851,144.434814 119.328964,143.989548 119.353226,143.213593 
	C119.431381,142.882919 119.788589,142.879745 119.965218,142.906311 
z"/>
<path fill="#E5DF18" opacity="1.000000" stroke="none" 
	d="
M119.373695,164.299500 
	C119.565872,164.285645 119.603104,164.492706 119.483406,164.812943 
	C119.428429,164.908279 119.320702,164.502579 119.373695,164.299500 
z"/>
<path fill="#F0E81A" opacity="1.000000" stroke="none" 
	d="
M120.707596,140.038788 
	C120.772995,140.300323 120.608765,140.508636 120.258003,140.816254 
	C120.102448,140.940002 120.094986,140.450836 120.102699,140.206116 
	C120.110413,139.961411 120.508934,140.009964 120.707596,140.038788 
z"/>
<path fill="#F3EC18" opacity="1.000000" stroke="none" 
	d="
M128.989166,185.389618 
	C129.641937,185.194214 130.295120,185.389252 131.392303,185.325043 
	C131.836334,185.065826 131.776566,185.075439 131.775848,185.090485 
	C131.775146,185.105545 131.745819,185.053726 131.530838,185.455124 
	C132.896744,187.005737 134.477615,188.154953 136.298813,189.429016 
	C136.877762,189.684250 137.216415,189.814651 137.917297,189.879959 
	C139.495346,189.877090 140.711121,189.939301 141.926910,190.001526 
	C141.937729,190.183685 141.948563,190.365845 141.984253,191.028595 
	C142.009125,191.509171 142.018478,191.926575 142.018478,191.926575 
	C138.354385,192.221085 134.417786,193.837402 131.496933,190.147583 
	C130.466492,188.845840 129.814407,187.244568 128.989166,185.389618 
z"/>
<path fill="#8A7F10" opacity="1.000000" stroke="none" 
	d="
M142.050934,189.738647 
	C140.711121,189.939301 139.495346,189.877090 137.723999,189.665085 
	C136.798477,189.444916 136.428482,189.374542 136.058502,189.304169 
	C134.477615,188.154953 132.896744,187.005737 131.865936,185.707169 
	C132.939758,185.731491 133.463486,185.905167 133.987228,186.078842 
	C133.987228,186.078842 133.909042,186.050064 134.123871,186.371460 
	C136.977188,186.572769 139.615677,186.452682 142.254150,186.332611 
	C142.254150,186.332611 142.285278,186.358109 142.518127,186.362885 
	C143.040985,186.375488 143.323898,186.334412 143.599701,186.244431 
	C143.599701,186.244431 143.669876,186.266602 143.669754,186.540497 
	C143.749161,187.217239 143.828690,187.620087 143.908234,188.022919 
	C143.330475,188.507202 142.752716,188.991486 142.050934,189.738647 
z"/>
<path fill="#F0E81A" opacity="1.000000" stroke="none" 
	d="
M108.378525,191.008224 
	C107.311806,190.460464 106.585884,189.877853 105.574738,189.066345 
	C108.096046,186.891998 110.144150,185.677170 111.966644,189.718292 
	C110.904243,190.326767 109.811783,190.650070 108.378525,191.008224 
z"/>
<path fill="#E3DD33" opacity="1.000000" stroke="none" 
	d="
M143.802246,185.927307 
	C143.323898,186.334412 143.040985,186.375488 142.537003,186.355942 
	C142.711166,184.193375 143.099319,182.042557 143.745789,179.946014 
	C144.004318,181.870255 144.004562,183.740234 143.802246,185.927307 
z"/>
<path fill="#E8E127" opacity="1.000000" stroke="none" 
	d="
M134.160309,249.493103 
	C135.197754,249.633011 136.319260,250.054108 137.670898,250.667053 
	C136.682129,250.497375 135.463257,250.135849 134.160309,249.493103 
z"/>
<path fill="#F0E81A" opacity="1.000000" stroke="none" 
	d="
M142.213867,192.070267 
	C142.018478,191.926575 142.009125,191.509171 142.003235,191.301666 
	C142.638031,191.386734 143.278717,191.679306 143.919388,191.971893 
	C143.416000,192.052582 142.912628,192.133270 142.213867,192.070267 
z"/>
<path fill="#F0E81A" opacity="1.000000" stroke="none" 
	d="
M144.121323,187.928680 
	C143.828690,187.620087 143.749161,187.217239 143.681183,186.505524 
	C143.906631,186.742584 144.120529,187.288513 144.121323,187.928680 
z"/>
<path fill="#E8E127" opacity="1.000000" stroke="none" 
	d="
M83.981171,236.490860 
	C83.996155,236.478821 83.966194,236.502899 83.981171,236.490860 
z"/>
<path fill="#F3EC18" opacity="1.000000" stroke="none" 
	d="
M115.003006,143.997971 
	C115.006012,143.995941 114.956970,143.945633 114.976486,143.975800 
	C114.995995,144.005981 115.000000,144.000000 115.003006,143.997971 
z"/>
<path fill="#FEFEEB" opacity="1.000000" stroke="none" 
	d="
M158.487106,224.917816 
	C163.431534,228.169952 163.816086,231.164215 160.331635,236.174362 
	C157.264374,240.584641 151.320206,242.687103 148.494019,239.776489 
	C146.953979,238.190460 146.180695,235.071854 146.380127,232.758102 
	C146.734283,228.649567 149.561523,225.957489 153.643814,224.995911 
	C155.055313,224.663437 156.597702,224.886642 158.487106,224.917816 
z"/>
<path fill="#F0E81A" opacity="1.000000" stroke="none" 
	d="
M107.028236,177.027252 
	C105.962471,180.126801 104.872765,183.206863 103.759361,186.353912 
	C101.192871,182.905975 102.094383,179.911621 106.670685,177.108307 
	C106.955559,176.969894 107.004303,177.007767 107.028236,177.027252 
z"/>
<path fill="#E3DD33" opacity="1.000000" stroke="none" 
	d="
M141.787445,186.262115 
	C139.615677,186.452682 136.977188,186.572769 134.109528,186.410568 
	C136.360489,186.149399 138.840607,186.170502 141.787445,186.262115 
z"/>
<path fill="#E3DD33" opacity="1.000000" stroke="none" 
	d="
M130.877991,183.219467 
	C130.561798,183.006699 130.175842,182.446747 129.680252,181.562454 
	C129.983170,181.782822 130.395721,182.327545 130.877991,183.219467 
z"/>
<path fill="#E3DD33" opacity="1.000000" stroke="none" 
	d="
M133.749512,185.865921 
	C133.463486,185.905167 132.939758,185.731491 132.080917,185.305771 
	C131.745819,185.053726 131.775146,185.105545 131.746262,185.084167 
	C132.315506,185.259506 132.913635,185.456253 133.749512,185.865921 
z"/>
<path fill="#FDF105" opacity="1.000000" stroke="none" 
	d="
M141.503876,177.493942 
	C141.510239,177.512756 141.497513,177.475128 141.503876,177.493942 
z"/>
<path fill="#F0E81A" opacity="1.000000" stroke="none" 
	d="
M136.298813,189.429016 
	C136.428482,189.374542 136.798477,189.444916 137.361755,189.730179 
	C137.216415,189.814651 136.877762,189.684250 136.298813,189.429016 
z"/>
</svg>